<?xml version="1.0" encoding="UTF-8" standalone="no"?>
<svg
   xmlns:dc="http://purl.org/dc/elements/1.1/"
   xmlns:cc="http://creativecommons.org/ns#"
   xmlns:rdf="http://www.w3.org/1999/02/22-rdf-syntax-ns#"
   xmlns:svg="http://www.w3.org/2000/svg"
   xmlns="http://www.w3.org/2000/svg"
   xmlns:sodipodi="http://sodipodi.sourceforge.net/DTD/sodipodi-0.dtd"
   xmlns:inkscape="http://www.inkscape.org/namespaces/inkscape"
   id="svg"
   width="102"
   height="102"
   viewBox="0 0 102 102"
   version="1.1"
   sodipodi:docname="css.svg"
   inkscape:version="0.92.4 (5da689c313, 2019-01-14)">
  <metadata
     id="metadata876">
    <rdf:RDF>
      <cc:Work
         rdf:about="">
        <dc:format>image/svg+xml</dc:format>
        <dc:type
           rdf:resource="http://purl.org/dc/dcmitype/StillImage" />
        <dc:title></dc:title>
      </cc:Work>
    </rdf:RDF>
  </metadata>
  <defs
     id="defs874" />
  <sodipodi:namedview
     pagecolor="#ffffff"
     bordercolor="#666666"
     borderopacity="1"
     objecttolerance="10"
     gridtolerance="10"
     guidetolerance="10"
     inkscape:pageopacity="0"
     inkscape:pageshadow="2"
     inkscape:window-width="1366"
     inkscape:window-height="745"
     id="namedview872"
     showgrid="false"
     inkscape:zoom="0.59"
     inkscape:cx="200"
     inkscape:cy="200"
     inkscape:window-x="-8"
     inkscape:window-y="-8"
     inkscape:window-maximized="1"
     inkscape:current-layer="svg" />
  <g
     id="g1022"
     transform="matrix(0.24971168,0,0,0.25009565,-2.8229274,0.96698101)">
    <g
       id="g1006">
      <g
         id="g991">
        <g
           id="g977">
          <g
             id="g964">
            <g
               id="g952">
              <g
                 id="g941">
                <g
                   id="g931">
                  <g
                     id="g922">
                    <g
                       id="g914">
                      <path
                         id="path0"
                         style="fill:#4e4e4e;fill-rule:evenodd;stroke:none"
                         d="m 387.71246,95.1098 c 0.051,0.0871 0.1059,0.17583 0.1622,0.26562 0.2604,-0.0451 0.2919,-0.12185 -0.074,-0.24023 -0.029,-0.009 -0.059,-0.0163 -0.088,-0.0254 z m -106.11519,12.84375 c -16.93952,-0.008 -40.19777,0.0349 -72.19726,0.0664 -67.32,0.066 -102.31708,0.237 -102.58008,0.5 -0.219,0.219 -0.6975,0.39844 -1.0625,0.39844 -1.171,0 -4.28852,3.13962 -5.35352,5.39062 l -1.02343,2.15821 v 58.80272 c 0,41.75201 0.12659,58.87836 0.43359,59.06836 0.238,0.148 16.30222,0.25996 35.69922,0.25196 19.397,-0.008 71.58375,-0.027 115.96875,-0.043 l 80.69922,-0.0293 v -58.96679 c 0,-66.86401 0.3082,-60.82939 -3.3008,-64.52539 -2.5125,-2.57325 3.5354,-3.04869 -47.28319,-3.07227 z m -109.02539,38.59766 c 2.29751,-0.0297 4.65195,0.26082 7.00977,0.90039 4.271,1.159 10.61661,4.9619 9.59961,5.7539 -0.22,0.172 -1.21022,1.30172 -2.19922,2.51172 -2.985,3.651 -3.32391,4 -3.87891,4 -0.497,0 -2.07048,-0.74822 -2.52148,-1.19922 -0.533,-0.533 -2.07349,-1.19922 -2.77149,-1.19922 -0.43,0 -0.89329,-0.18039 -1.02929,-0.40039 -0.358,-0.579 -4.93547,-0.48047 -6.73047,0.14453 -2.975,1.036 -4.9053,3.2433 -6.69532,7.6543 -1.25099,3.084 -1.24827,14.49156 0.004,17.60156 2.255,5.603 4.334,7.39603 9.375,8.08203 2.228,0.304 6.20792,-0.9249 8.91992,-2.7539 1.573,-1.061 3.31999,-1.49513 3.33399,-0.82813 0.004,0.165 0.72075,1.10961 1.59375,2.09961 0.873,0.99 1.58975,1.90611 1.59375,2.03711 0.003,0.131 0.44823,0.75477 0.99023,1.38477 1.188,1.382 0.93802,1.78425 -2.58398,4.15625 -9.502,6.398 -23.36478,5.26561 -30.92578,-2.52539 -4.889,-5.039 -6.75813,-10.52774 -6.82813,-20.05274 -0.045,-6.204 0.0919,-7.25817 1.46289,-11.20117 3.43931,-9.88975 12.32537,-16.03756 22.28125,-16.16601 z m 41.57031,0.0527 c 1.17863,0.0221 2.28683,0.18591 4.11133,0.50391 4.836,0.843 8.70925,2.49125 11.53125,4.90625 1.881,1.611 1.88671,1.64157 0.59571,3.14257 -0.55,0.639 -1.76422,2.09719 -2.69922,3.24219 -1.835,2.245 -2.52061,2.50597 -3.72461,1.41797 -5.618,-5.075 -16.75063,-4.18492 -16.64063,1.33008 0.054,2.663 0.40424,2.90657 8.36524,5.81054 1.265,0.46101 2.70422,1.00022 3.19922,1.19922 0.495,0.199 1.30578,0.52085 1.80078,0.71485 16.659,6.526 14.72154,26.84884 -2.93946,30.83984 -6.788,1.533 -20.16015,-0.54367 -23.16015,-3.59765 -0.11,-0.112 -0.85339,-0.63788 -1.65039,-1.17188 -2.702,-1.807 -2.67433,-1.95975 1.01367,-5.84375 l 3.32031,-3.49805 1.83008,1.25977 c 1.007,0.692 2.02281,1.25781 2.25781,1.25781 0.235,0 0.42774,0.18039 0.42774,0.40039 0,0.22 0.36078,0.40039 0.80078,0.40039 0.44,0 0.79883,0.15947 0.79883,0.35547 0,1.242 10.02387,1.56353 12.29687,0.39453 5.499,-2.829 3.56069,-8.4967 -3.69531,-10.80468 -0.88,-0.28003 -1.77147,-0.65313 -1.98047,-0.82813 -0.209,-0.175 -0.79478,-0.31836 -1.30078,-0.31836 -0.506,0 -0.91992,-0.17844 -0.91992,-0.39844 0,-0.22 -0.35411,-0.40039 -0.78711,-0.40039 -0.433,0 -1.42989,-0.36078 -2.21289,-0.80078 -0.783,-0.44 -1.68872,-0.79883 -2.01172,-0.79883 -0.323,0 -0.58789,-0.18039 -0.58789,-0.40039 0,-0.22 -0.26961,-0.40039 -0.59961,-0.40039 -0.33,0 -0.59961,-0.18039 -0.59961,-0.40039 0,-0.22 -0.225,-0.40039 -0.5,-0.40039 -1.5,-0.005 -5.15531,-4.25222 -6.19531,-7.19922 -0.563,-1.595 -0.68521,-8.24236 -0.15821,-8.56836 0.192,-0.118 0.45403,-0.737 0.58203,-1.375 0.127,-0.639 0.46968,-1.40698 0.76368,-1.70898 0.293,-0.301 0.93292,-1.1146 1.41992,-1.8086 1.969,-2.801 7.62993,-5.52232 12.71093,-6.11132 2.11001,-0.2445 3.35849,-0.36393 4.53711,-0.3418 z m 42.94141,0.11328 c 1.85797,0.0249 3.66563,0.24113 5.29688,0.65625 3.965,1.009 4.94367,1.34188 7.13867,2.42188 5.194,2.554 5.86433,3.69453 3.61133,6.14453 -0.798,0.868 -1.90122,2.1639 -2.44922,2.8789 -1.156,1.508 -1.843,1.60238 -3.5,0.48438 -5.418,-3.656 -14.19424,-3.87735 -15.99024,-0.40235 -1.918,3.708 -0.21637,5.41588 8.39063,8.42188 8.833,3.086 12.96022,5.91609 14.57422,9.99609 0.305,0.77 0.70367,1.5703 0.88867,1.7793 0.48,0.543 0.4235,9.31914 -0.0625,9.61914 -0.22,0.136 -0.40039,0.52052 -0.40039,0.85352 0,1.468 -3.181,5.28522 -6,7.19921 -8.265,5.611 -25.4255,4.13688 -32.9375,-2.82812 -1.298,-1.204 -1.3725,-1.02864 1.9375,-4.55664 1.1,-1.173 2.14431,-2.38722 2.32031,-2.69922 0.463,-0.823 1.35664,-0.70023 2.80664,0.38477 7.688,5.753 19.87305,4.55682 19.87305,-1.95118 0,-3.207 -1.95139,-4.83386 -8.40039,-7.00585 -8.726,-2.938 -13.84697,-6.44258 -15.91797,-10.89258 -0.939,-2.017 -1.2723,-7.94721 -0.5293,-9.40821 0.195,-0.382 0.60039,-1.23453 0.90039,-1.89453 0.301,-0.66 0.8611,-1.54861 1.2461,-1.97461 0.385,-0.427 0.70117,-0.91307 0.70117,-1.08007 0,-0.63902 5.10739,-3.88608 7.40039,-4.70508 2.7725,-0.99125 6.00494,-1.48292 9.10156,-1.44141 z m 157.89066,247.76563 c -0.062,0.005 -0.1283,0.0184 -0.1973,0.0449 -0.8946,0.34343 -2.5774,2.08972 -3.0488,3.12109 1.1596,0.004 2.319,0.008 3.4785,0.0137 0.8772,-1.09247 0.6802,-3.24605 -0.2324,-3.17968 z m -18.9141,3.25976 c -0.1569,1.15569 1.7776,1.11216 3.7227,0.0332 -0.9892,0.004 -2.3903,0.0552 -3.7227,-0.0332 z"
                         inkscape:connector-curvature="0" />
                      <path
                         style="fill:#f3f4f4;fill-rule:evenodd;stroke:none"
                         inkscape:connector-curvature="0"
                         d="m 167.65424,149.181 c -15.122,2.87 -23.061,20.462 -17.028,37.732 4.956,14.186 23.303,19.255 35.928,9.927 2.323,-1.717 2.331,-1.922 0.184,-4.558 -0.944,-1.159 -2.016,-2.535 -2.382,-3.058 -0.495,-0.707 -0.8,-0.843 -1.184,-0.53 -6.538,5.328 -15.589,4.813 -19.32,-1.098 -3.267,-5.175 -3.686,-17.653 -0.798,-23.739 3.099,-6.531 11.337,-8.368 17.948,-4.004 1.28,0.845 1.631,0.929 2.026,0.485 4.8,-5.399 5.028,-5.83 3.726,-7.024 -3.525,-3.234 -13.017,-5.288 -19.1,-4.133 m 41,-0.003 c -10.244,1.368 -16.359,8.505 -14.6,17.038 1.2,5.823 5.556,9.428 15.2,12.582 8.726,2.853 11.633,6.662 8.472,11.1 -2.999,4.212 -13.711,3.557 -19.804,-1.212 l -1.131,-0.886 -2.766,3 c -3.256,3.532 -3.275,3.623 -1.071,5.251 14.837,10.958 37.9,4.514 37.9,-10.589 0,-3.187 -0.168,-4.018 -1.345,-6.662 -1.4,-3.144 -5.17,-6.134 -10.155,-8.054 -0.495,-0.19 -1.305,-0.514 -1.8,-0.72 -0.495,-0.205 -2.07,-0.767 -3.5,-1.249 -5.225,-1.759 -6.819,-2.717 -7.652,-4.601 -2.891,-6.537 8.497,-9.288 16.506,-3.987 2.037,1.347 1.886,1.406 4.688,-1.817 2.884,-3.319 2.851,-3.177 1.058,-4.545 -5.027,-3.834 -12.717,-5.621 -20,-4.649 m 43.4,0.002 c -13.861,2.05 -19.617,15.575 -10.24,24.061 1.32,1.194 8.139,4.759 9.104,4.759 0.317,0 0.747,0.149 0.956,0.33 0.209,0.182 1.19,0.576 2.18,0.876 7.461,2.257 10.327,6.233 7.5,10.404 -2.328,3.434 -10.993,4.231 -16.1,1.481 -0.44,-0.237 -1.475,-0.793 -2.3,-1.235 -0.825,-0.442 -1.5,-0.932 -1.5,-1.087 0,-1.254 -1.522,-0.441 -4.006,2.139 -3.199,3.323 -3.198,3.323 -1.575,4.709 7.185,6.132 23.974,7.63 30.826,2.751 0.593,-0.423 1.238,-0.768 1.433,-0.768 1.168,0 4.466,-4.475 5.601,-7.6 0.635,-1.746 0.676,-7.582 0.065,-9.081 -1.306,-3.202 -1.784,-3.982 -3.41,-5.562 -2.225,-2.163 -7.481,-4.774 -13.734,-6.822 -5.43,-1.779 -7.2,-3.277 -7.2,-6.093 0.002,-5.987 9.916,-6.971 17.85,-1.773 1.138,0.746 0.834,0.956 4.108,-2.831 2.463,-2.849 2.452,-2.718 0.342,-4.166 -5.636,-3.866 -12.957,-5.518 -19.9,-4.492 M 98.854237,252.854 c 0,20.27 0.358,21.657 6.400003,24.807 l 1.8,0.939 38.128,0.062 c 20.971,0.034 38.23,0.163 38.355,0.288 0.338,0.337 0.284,26.217 -0.056,26.557 -0.16,0.161 -4.342,0.383 -9.293,0.493 l -9.001,0.2 -1.158,1.297 c -2.578,2.887 -1.751,6.879 1.744,8.412 2.245,0.985 98.169,0.679 99.805,-0.319 2.254,-1.375 2.961,-3.961 1.845,-6.751 -1.042,-2.603 -1.985,-2.838 -11.429,-2.845 -4.477,-0.003 -8.381,-0.159 -8.676,-0.346 -0.544,-0.345 -0.84,-26.205 -0.306,-26.74 0.124,-0.123 17.373,-0.248 38.333,-0.277 42.649,-0.06 39.643,0.147 42.834,-2.951 1.417,-1.375 1.799,-2.008 3.019,-4.999 0.316,-0.775 0.456,-6.154 0.456,-17.5 V 236.8 h -116.4 -116.400003 v 16.054"
                         id="path1" />
                      <path
                         style="fill:#34baa4;fill-rule:evenodd;stroke:none"
                         inkscape:connector-curvature="0"
                         d="m 194.25424,0.438 c -1.98,0.192 -4.86,0.456 -6.4,0.588 -1.54,0.131 -2.971,0.404 -3.18,0.606 -0.209,0.203 -1.334,0.368 -2.5,0.368 -1.166,0 -2.12,0.18 -2.12,0.4 0,0.22 -0.889,0.4 -1.976,0.4 -1.087,0 -2.088,0.18 -2.224,0.4 -0.136,0.22 -1.047,0.4 -2.024,0.4 -0.977,0 -1.776,0.18 -1.776,0.4 0,0.22 -0.72,0.4 -1.6,0.4 -0.88,0 -1.6,0.18 -1.6,0.4 0,0.22 -0.619,0.4 -1.376,0.4 -0.757,0 -1.488,0.18 -1.624,0.4 -0.136,0.22 -0.957,0.4 -1.824,0.4 -0.867,0 -1.576,0.18 -1.576,0.4 0,0.22 -0.619,0.4 -1.376,0.4 -0.757,0 -1.488,0.18 -1.624,0.4 -0.136,0.22 -0.766,0.4 -1.4,0.4 -0.634,0 -1.264,0.18 -1.4,0.4 -0.136,0.22 -0.676,0.4 -1.2,0.4 -0.524,0 -1.064,0.18 -1.2,0.4 -0.136,0.22 -0.676,0.4 -1.2,0.4 -0.524,0 -1.064,0.18 -1.2,0.4 -0.136,0.22 -0.713,0.4 -1.282,0.4 -0.892,0 -2.437,0.641 -8.204,3.405 -0.598,0.286 -1.858,0.649 -2.8,0.805 -0.943,0.157 -2.382,0.624 -3.198,1.038 -0.816,0.414 -1.761,0.752 -2.1,0.752 -0.339,0 -0.616,0.18 -0.616,0.4 0,0.22 -0.36,0.4 -0.8,0.4 -0.44,0 -0.8,0.18 -0.8,0.4 0,0.22 -0.349,0.4 -0.776,0.4 -0.427,0 -0.888,0.18 -1.024,0.4 -0.136,0.22 -0.597,0.4 -1.024,0.4 -0.427,0 -0.777,0.135 -0.779,0.3 -0.004,0.359 -1.941,1.3 -2.677,1.3 -0.286,0 -0.52,0.18 -0.52,0.4 0,0.22 -0.36,0.4 -0.8,0.4 -0.44,0 -0.8,0.18 -0.8,0.4 0,0.22 -0.27,0.4 -0.6,0.4 -0.33,0 -0.6,0.136 -0.6,0.302 0,0.167 -0.585,0.557 -1.3,0.867 -0.715,0.31 -2.325,1.254 -3.578,2.098 -1.253,0.843 -2.468,1.533 -2.7,1.533 -0.232,0 -0.422,0.159 -0.422,0.353 0,0.195 -0.315,0.457 -0.7,0.583 -0.385,0.126 -1.51,0.717 -2.5,1.313 -3.151,1.899 -6,3.368 -6,3.094 0,-0.146 -0.336,0.122 -0.747,0.596 -0.411,0.473 -0.952,0.861 -1.204,0.861 -0.251,0 -1.021,0.54 -1.712,1.2 -0.691,0.66 -1.499,1.2 -1.796003,1.2 -0.298,0 -0.541,0.15 -0.541,0.332 0,0.183 -0.495,0.588 -1.1,0.9 -0.605,0.313 -1.497,0.928 -1.982,1.368 -0.485,0.44 -1.452,1.25 -2.149,1.8 -0.696,0.55 -1.502,1.225 -1.789,1.5 -0.288,0.275 -0.634,0.5 -0.77,0.5 -0.135,0 -0.696,0.45 -1.246,1 -0.55,0.55 -1.166,1 -1.369,1 -0.352,0 -0.845,0.418 -5.395,4.567 -1.1,1.004 -2.12,1.826 -2.266,1.829 -0.147,0.002 -1.497,1.287 -3,2.855 -3.458,3.606 -6.077,6.225 -9.683,9.683 -1.568,1.503 -2.853,2.853 -2.855,3 -0.003,0.146 -0.825,1.166 -1.829,2.266 -4.149,4.55 -4.567,5.043 -4.567,5.395 0,0.203 -0.45,0.819 -1,1.369 -0.55,0.55 -1,1.111 -1,1.246 0,0.136 -0.225,0.482 -0.5,0.77 -0.275,0.287 -0.95,1.093 -1.5,1.789 -0.55,0.697 -1.36,1.664 -1.8,2.149 -0.44,0.485 -1.055,1.377 -1.368,1.982 -0.312,0.605 -0.717,1.1 -0.9,1.1 -0.182,0 -0.332,0.243 -0.332,0.541 0,0.297 -0.54,1.105 -1.2,1.796 -0.66,0.691 -1.2,1.461 -1.2,1.712 0,0.252 -0.388,0.793 -0.861,1.204 -0.474,0.411 -0.742,0.747 -0.596,0.747 0.274,0 -1.195,2.849 -3.094,6 -0.596,0.99 -1.187,2.115 -1.313,2.5 -0.126,0.385 -0.388,0.7 -0.583,0.7 -0.194,0 -0.353,0.19 -0.353,0.422 0,0.232 -0.69,1.447 -1.533,2.7 -0.844,1.253 -1.788,2.863 -2.098,3.578 -0.31,0.715 -0.7,1.3 -0.867,1.3 -0.166,0 -0.302,0.27 -0.302,0.6 0,0.33 -0.18,0.6 -0.4,0.6 -0.22,0 -0.4,0.36 -0.4,0.8 0,0.44 -0.18,0.8 -0.4,0.8 -0.22,0 -0.4,0.234 -0.4,0.52 0,0.736 -0.941,2.673 -1.3,2.677 -0.165,0.002 -0.3,0.352 -0.3,0.779 0,0.427 -0.18,0.888 -0.4,1.024 -0.22,0.136 -0.4,0.597 -0.4,1.024 0,0.427 -0.18,0.776 -0.4,0.776 -0.22,0 -0.4,0.36 -0.4,0.8 0,0.44 -0.18,0.8 -0.4,0.8 -0.22,0 -0.4,0.277 -0.4,0.616 0,0.339 -0.338,1.284 -0.752,2.1 -0.414,0.816 -0.881,2.255 -1.038,3.198 -0.156,0.942 -0.519,2.202 -0.805,2.8 -2.768,5.776 -3.405,7.315 -3.405,8.228 0,0.582 -0.18,1.058 -0.4,1.058 -0.22,0 -0.4,0.529 -0.4,1.176 0,0.647 -0.18,1.288 -0.4,1.424 -0.22,0.136 -0.4,0.676 -0.4,1.2 0,0.524 -0.18,1.064 -0.4,1.2 -0.22,0.136 -0.4,0.766 -0.4,1.4 0,0.634 -0.18,1.264 -0.4,1.4 -0.22,0.136 -0.4,0.766 -0.4,1.4 0,0.634 -0.18,1.264 -0.4,1.4 -0.22,0.136 -0.4,0.946 -0.4,1.8 0,0.854 -0.18,1.664 -0.4,1.8 -0.22,0.136 -0.4,0.867 -0.4,1.624 0,0.757 -0.18,1.376 -0.4,1.376 -0.22,0 -0.4,0.72 -0.4,1.6 0,0.88 -0.18,1.6 -0.4,1.6 -0.22,0 -0.4,0.799 -0.4,1.776 0,0.977 -0.18,1.888 -0.4,2.024 -0.22,0.136 -0.4,1.137 -0.4,2.224 0,1.087 -0.18,1.976 -0.4,1.976 -0.22,0 -0.4,0.954 -0.4,2.12 0,1.166 -0.165,2.291 -0.368,2.5 -0.202,0.209 -0.464,1.55 -0.583,2.98 -0.118,1.43 -0.415,4.94 -0.659,7.8 -0.606,7.1 -0.327,44.023 0.338,44.688 0.27,0.27 0.472,1.635 0.472,3.192 0,1.547 0.173,2.72 0.4,2.72 0.222,0 0.4,1.067 0.4,2.4 0,1.333 0.178,2.4 0.4,2.4 0.22,0 0.4,0.799 0.4,1.776 0,0.977 0.18,1.888 0.4,2.024 0.22,0.136 0.4,1.047 0.4,2.024 0,0.977 0.18,1.776 0.4,1.776 0.22,0 0.4,0.619 0.4,1.376 0,0.757 0.18,1.488 0.4,1.624 0.22,0.136 0.4,1.137 0.4,2.224 0,1.087 0.18,1.976 0.4,1.976 0.22,0 0.4,0.529 0.4,1.176 0,0.647 0.18,1.288 0.4,1.424 0.22,0.136 0.4,0.777 0.4,1.424 0,0.647 0.18,1.176 0.4,1.176 0.22,0 0.4,0.439 0.4,0.976 0,0.537 0.18,1.088 0.4,1.224 0.22,0.136 0.4,0.856 0.4,1.6 0,0.744 0.18,1.464 0.4,1.6 0.22,0.136 0.4,0.676 0.4,1.2 0,0.524 0.16,1.052 0.356,1.173 0.301,0.186 0.575,1.304 0.91,3.71 0.037,0.265 0.307,0.575 0.601,0.687 0.293,0.113 0.533,0.56 0.533,0.994 0,0.434 0.156,0.885 0.347,1.004 0.192,0.118 0.465,0.948 0.609,1.845 0.143,0.897 0.595,2.386 1.005,3.309 0.409,0.923 0.967,2.263 1.24,2.978 0.273,0.715 0.625,1.3 0.783,1.3 0.442,0 1.216,1.921 1.216,3.019 0,0.539 0.18,0.981 0.4,0.981 0.22,0 0.4,0.272 0.4,0.605 0,0.333 0.162,0.918 0.36,1.3 0.197,0.382 0.782,1.55 1.299,2.595 0.517,1.045 1.047,1.9 1.177,1.9 0.231,0 1.703,2.866 2.415,4.7 0.734,1.891 1.296,2.9 1.617,2.9 0.182,0 0.332,0.32 0.332,0.712 0,0.391 0.36,0.971 0.8,1.288 0.44,0.317 0.8,0.807 0.8,1.088 0,0.282 0.166,0.512 0.368,0.512 0.203,0 0.496,0.582 0.653,1.294 0.156,0.712 0.559,1.747 0.896,2.3 1.547,2.545 2.767,4.278 3.741,5.312 0.581,0.618 1.295,1.702 1.585,2.409 0.29,0.707 0.849,1.634 1.242,2.06 0.393,0.427 0.715,0.92 0.715,1.096 0,0.36 0.811,1.407 2.647,3.417 0.686,0.752 1.494,1.849 1.797,2.439 0.303,0.59 0.867,1.364 1.253,1.72 0.387,0.356 0.703,0.799 0.703,0.986 0,0.342 0.223,0.599 3.173,3.651 0.895,0.926 1.627,1.852 1.627,2.058 0,0.205 0.495,0.919 1.1,1.586 0.605,0.667 1.55,1.8 2.1,2.517 0.55,0.716 1.252,1.495 1.561,1.729 0.308,0.234 1.259,1.146 2.114,2.026 1.857,1.912 2.892,2.949 6.325,6.335 1.43,1.41 3.28,3.307 4.111,4.215 0.832,0.907 1.687,1.65 1.9,1.65 0.214,0 0.389,0.141 0.389,0.314 0,0.172 0.585,0.651 1.3,1.063 0.715,0.413 2.219,1.666 3.343,2.787 3.048,3.038 3.984,3.784 6.157,4.912 1.088,0.565 2.086,1.363 2.216,1.775 0.131,0.412 0.496,0.749 0.811,0.749 0.315,0 0.573,0.138 0.573,0.306 0,0.168 0.72,0.75 1.6,1.294 0.88,0.544 1.6,1.126 1.6,1.294 0,0.168 0.27,0.306 0.6,0.306 0.330003,0 0.600003,0.18 0.600003,0.4 0,0.22 0.338,0.4 0.752,0.4 0.413,0 1.493,0.72 2.4,1.6 0.907,0.88 1.836,1.6 2.065,1.6 0.229,0 0.803,0.36 1.275,0.8 0.472,0.44 1.095,0.8 1.383,0.8 0.289,0 0.525,0.173 0.525,0.385 0,0.211 0.729,0.581 1.621,0.821 0.892,0.24 1.989,0.804 2.438,1.253 1.325,1.325 3.596,2.741 4.397,2.741 0.409,0 0.744,0.18 0.744,0.4 0,0.22 0.27,0.4 0.6,0.4 0.33,0 0.6,0.18 0.6,0.4 0,0.22 0.362,0.4 0.805,0.4 0.85,0 2.183,0.649 3.132,1.524 0.312,0.288 1.264,0.826 2.116,1.194 0.851,0.369 1.547,0.808 1.547,0.976 0,0.168 0.253,0.306 0.562,0.306 0.309,0 1.254,0.347 2.1,0.772 0.846,0.425 2.02,0.875 2.61,1.001 0.59,0.125 1.342,0.498 1.671,0.828 0.33,0.329 0.793,0.599 1.028,0.599 0.236,0 0.429,0.141 0.429,0.313 0,0.172 0.855,0.558 1.9,0.858 1.045,0.3 2.092,0.694 2.327,0.876 0.235,0.182 1.379,0.534 2.542,0.784 1.164,0.249 2.456,0.794 2.873,1.211 0.417,0.417 1.107,0.758 1.534,0.758 0.427,0 0.888,0.18 1.024,0.4 0.136,0.22 0.777,0.4 1.424,0.4 0.647,0 1.176,0.16 1.176,0.355 0,0.4 2.055,0.877 3.674,0.853 0.59,-0.009 1.186,0.165 1.323,0.388 0.138,0.222 0.69,0.404 1.227,0.404 0.537,0 0.976,0.18 0.976,0.4 0,0.22 0.439,0.4 0.976,0.4 0.537,0 1.088,0.18 1.224,0.4 0.136,0.22 0.689,0.4 1.229,0.4 0.54,0 1.294,0.159 1.676,0.353 0.966,0.49 4.303,1.247 5.501,1.247 0.547,0 0.994,0.18 0.994,0.4 0,0.22 0.72,0.4 1.6,0.4 0.88,0 1.6,0.18 1.6,0.4 0,0.22 0.81,0.4 1.8,0.4 0.99,0 1.8,0.18 1.8,0.4 0,0.222 1.059,0.4 2.376,0.4 1.307,0 2.488,0.18 2.624,0.4 0.136,0.22 1.011,0.4 1.944,0.4 0.933,0 1.867,0.165 2.076,0.368 0.209,0.202 1.55,0.467 2.98,0.589 1.43,0.123 4.49,0.388 6.8,0.59 8.787,0.77 45.884,0.435 45.362,-0.409 -0.115,-0.186 1.241,-0.338 3.014,-0.338 1.883,0 3.224,-0.166 3.224,-0.4 0,-0.222 1.067,-0.4 2.4,-0.4 1.333,0 2.4,-0.178 2.4,-0.4 0,-0.22 0.9,-0.4 2,-0.4 1.1,0 2,-0.18 2,-0.4 0,-0.22 0.709,-0.4 1.576,-0.4 0.867,0 1.688,-0.18 1.824,-0.4 0.136,-0.22 0.856,-0.4 1.6,-0.4 0.744,0 1.464,-0.18 1.6,-0.4 0.136,-0.22 1.137,-0.4 2.224,-0.4 1.087,0 1.976,-0.18 1.976,-0.4 0,-0.22 0.54,-0.4 1.2,-0.4 0.66,0 1.2,-0.18 1.2,-0.4 0,-0.22 0.72,-0.4 1.6,-0.4 0.88,0 1.6,-0.18 1.6,-0.4 0,-0.22 0.54,-0.4 1.2,-0.4 0.66,0 1.2,-0.155 1.2,-0.344 0,-0.19 0.869,-0.448 1.931,-0.573 1.063,-0.126 2.555,-0.597 3.316,-1.046 1.532,-0.904 6.05,-2.437 7.182,-2.437 0.398,0 0.835,-0.18 0.971,-0.4 0.136,-0.22 0.591,-0.4 1.011,-0.4 0.421,0 1.406,-0.36 2.189,-0.8 0.783,-0.44 1.689,-0.8 2.012,-0.8 0.323,0 0.588,-0.141 0.588,-0.313 0,-0.172 0.495,-0.353 1.1,-0.403 0.605,-0.05 1.16,-0.269 1.233,-0.487 0.074,-0.219 0.479,-0.397 0.9,-0.397 0.422,0 0.767,-0.18 0.767,-0.4 0,-0.22 0.36,-0.4 0.8,-0.4 0.44,0 0.8,-0.18 0.8,-0.4 0,-0.22 0.236,-0.4 0.525,-0.4 0.289,0 1.27,-0.36 2.181,-0.8 0.91,-0.44 1.852,-0.8 2.091,-0.8 0.24,0 0.792,-0.331 1.226,-0.736 0.435,-0.405 1.282,-0.99 1.884,-1.299 0.601,-0.31 1.183,-0.654 1.293,-0.764 0.11,-0.111 0.965,-0.606 1.9,-1.101 0.935,-0.495 2.465,-1.305 3.4,-1.8 0.935,-0.495 1.806,-1.045 1.937,-1.221 0.13,-0.177 0.4,-0.269 0.6,-0.205 0.432,0.139 5.904,-2.86 6.096,-3.341 0.074,-0.183 0.355,-0.333 0.625,-0.333 0.27,0 0.84,-0.315 1.267,-0.7 0.426,-0.385 1.27,-0.955 1.875,-1.268 0.605,-0.312 1.1,-0.717 1.1,-0.9 0,-0.182 0.272,-0.332 0.604,-0.332 0.332,0 1.168,-0.54 1.859,-1.2 0.691,-0.66 1.433,-1.2 1.649,-1.2 0.217,0 0.685,-0.316 1.041,-0.703 0.356,-0.386 1.142,-0.957 1.747,-1.267 0.605,-0.311 1.1,-0.715 1.1,-0.898 0,-0.182 0.178,-0.332 0.395,-0.332 0.218,0 0.773,-0.315 1.234,-0.7 0.461,-0.385 1.318,-1.105 1.905,-1.6 0.586,-0.494 1.178,-0.899 1.316,-0.9 0.137,0 0.937,-0.63 1.778,-1.4 0.841,-0.77 1.665,-1.4 1.831,-1.4 0.167,0 1.203,-0.9 2.303,-2 1.1,-1.1 2.175,-2 2.389,-2 0.501,0 18.849,-18.337 18.849,-18.839 0,-0.208 0.99,-1.384 2.2,-2.614 1.21,-1.229 2.2,-2.376 2.2,-2.549 0,-0.172 0.54,-0.891 1.2,-1.598 0.66,-0.707 1.2,-1.401 1.2,-1.542 0.001,-0.142 0.406,-0.738 0.9,-1.324 2.081,-2.466 2.3,-2.757 2.3,-3.05 0,-0.169 0.36,-0.567 0.8,-0.884 0.44,-0.317 0.8,-0.857 0.8,-1.2 0,-0.343 0.36,-0.883 0.8,-1.2 0.44,-0.317 0.8,-0.78 0.8,-1.029 0,-0.249 0.54,-1.017 1.2,-1.708 0.66,-0.691 1.2,-1.527 1.2,-1.859 0,-0.332 0.15,-0.604 0.332,-0.604 0.183,0 0.588,-0.495 0.9,-1.1 0.313,-0.605 0.883,-1.449 1.268,-1.875 0.385,-0.427 0.7,-0.997 0.7,-1.267 0,-0.27 0.15,-0.551 0.333,-0.625 0.481,-0.192 3.48,-5.664 3.341,-6.096 -0.064,-0.2 0.028,-0.47 0.205,-0.6 0.176,-0.131 0.75,-1.047 1.274,-2.037 0.525,-0.99 1.335,-2.52 1.8,-3.4 0.466,-0.88 0.937,-1.69 1.048,-1.8 0.11,-0.11 0.454,-0.692 0.764,-1.293 0.309,-0.602 0.894,-1.449 1.299,-1.884 0.405,-0.434 0.736,-0.986 0.736,-1.226 0,-0.239 0.36,-1.181 0.8,-2.091 0.44,-0.911 0.8,-1.892 0.8,-2.181 0,-0.289 0.18,-0.525 0.4,-0.525 0.22,0 0.4,-0.36 0.4,-0.8 0,-0.44 0.18,-0.8 0.4,-0.8 0.22,0 0.4,-0.345 0.4,-0.767 0,-0.421 0.178,-0.826 0.397,-0.9 0.218,-0.073 0.437,-0.628 0.487,-1.233 0.05,-0.605 0.231,-1.1 0.403,-1.1 0.172,0 0.313,-0.265 0.313,-0.588 0,-0.323 0.36,-1.229 0.8,-2.012 0.44,-0.783 0.8,-1.768 0.8,-2.189 0,-0.42 0.18,-0.875 0.4,-1.011 0.22,-0.136 0.4,-0.573 0.4,-0.971 0,-1.132 1.533,-5.65 2.437,-7.182 0.449,-0.761 0.92,-2.253 1.046,-3.316 0.125,-1.062 0.383,-1.931 0.573,-1.931 0.189,0 0.344,-0.54 0.344,-1.2 0,-0.66 0.18,-1.2 0.4,-1.2 0.22,0 0.4,-0.72 0.4,-1.6 0,-0.88 0.18,-1.6 0.4,-1.6 0.22,0 0.4,-0.54 0.4,-1.2 0,-0.66 0.18,-1.2 0.4,-1.2 0.22,0 0.4,-0.889 0.4,-1.976 0,-1.087 0.18,-2.088 0.4,-2.224 0.22,-0.136 0.4,-0.856 0.4,-1.6 0,-0.744 0.18,-1.464 0.4,-1.6 0.22,-0.136 0.4,-0.957 0.4,-1.824 0,-0.867 0.18,-1.576 0.4,-1.576 0.22,0 0.4,-0.9 0.4,-2 0,-1.1 0.18,-2 0.4,-2 0.222,0 0.4,-1.067 0.4,-2.4 0,-1.333 0.178,-2.4 0.4,-2.4 0.234,0 0.4,-1.341 0.4,-3.224 0,-1.773 0.152,-3.129 0.338,-3.014 0.844,0.522 1.179,-36.575 0.409,-45.362 -0.202,-2.31 -0.467,-5.37 -0.59,-6.8 -0.122,-1.43 -0.387,-2.771 -0.589,-2.98 -0.203,-0.209 -0.368,-1.143 -0.368,-2.076 0,-0.933 -0.18,-1.808 -0.4,-1.944 -0.22,-0.136 -0.4,-1.317 -0.4,-2.624 0,-1.317 -0.178,-2.376 -0.4,-2.376 -0.22,0 -0.4,-0.81 -0.4,-1.8 0,-0.99 -0.18,-1.8 -0.4,-1.8 -0.22,0 -0.4,-0.72 -0.4,-1.6 0,-0.88 -0.18,-1.6 -0.4,-1.6 -0.22,0 -0.4,-0.447 -0.4,-0.994 0,-1.198 -0.757,-4.535 -1.247,-5.501 -0.194,-0.382 -0.353,-1.136 -0.353,-1.676 0,-0.54 -0.18,-1.093 -0.4,-1.229 -0.22,-0.136 -0.4,-0.687 -0.4,-1.224 0,-0.537 -0.18,-0.976 -0.4,-0.976 -0.22,0 -0.4,-0.439 -0.4,-0.976 0,-0.537 -0.182,-1.089 -0.404,-1.227 -0.223,-0.137 -0.397,-0.733 -0.388,-1.323 0.024,-1.619 -0.453,-3.674 -0.853,-3.674 -0.195,0 -0.355,-0.529 -0.355,-1.176 0,-0.647 -0.18,-1.288 -0.4,-1.424 -0.22,-0.136 -0.4,-0.597 -0.4,-1.024 0,-0.427 -0.341,-1.117 -0.758,-1.534 -0.417,-0.417 -0.962,-1.709 -1.211,-2.873 -0.25,-1.163 -0.602,-2.307 -0.784,-2.542 -0.182,-0.235 -0.576,-1.282 -0.876,-2.327 -0.3,-1.045 -0.686,-1.9 -0.858,-1.9 -0.172,0 -0.313,-0.193 -0.313,-0.429 0,-0.235 -0.27,-0.698 -0.599,-1.028 -0.33,-0.329 -0.703,-1.081 -0.828,-1.671 -0.126,-0.59 -0.576,-1.764 -1.001,-2.61 -0.425,-0.846 -0.772,-1.791 -0.772,-2.1 0,-0.309 -0.138,-0.562 -0.306,-0.562 -0.168,0 -0.607,-0.696 -0.976,-1.547 -0.368,-0.852 -0.906,-1.804 -1.194,-2.116 -0.875,-0.949 -1.524,-2.282 -1.524,-3.132 0,-0.443 -0.18,-0.805 -0.4,-0.805 -0.22,0 -0.4,-0.27 -0.4,-0.6 0,-0.33 -0.18,-0.6 -0.4,-0.6 -0.22,0 -0.4,-0.335 -0.4,-0.744 0,-0.801 -1.416,-3.072 -2.741,-4.397 -0.449,-0.449 -1.013,-1.546 -1.253,-2.438 -0.24,-0.892 -0.61,-1.621 -0.821,-1.621 -0.212,0 -0.385,-0.236 -0.385,-0.525 0,-0.288 -0.36,-0.911 -0.8,-1.383 -0.44,-0.472 -0.8,-1.046 -0.8,-1.275 0,-0.229 -0.72,-1.158 -1.6,-2.065 -0.88,-0.907 -1.6,-1.987 -1.6,-2.4 0,-0.414 -0.18,-0.752 -0.4,-0.752 -0.22,0 -0.4,-0.27 -0.4,-0.6 0,-0.33 -0.138,-0.6 -0.306,-0.6 -0.168,0 -0.75,-0.72 -1.294,-1.6 -0.544,-0.88 -1.126,-1.6 -1.294,-1.6 -0.168,0 -0.306,-0.258 -0.306,-0.573 0,-0.315 -0.333,-0.679 -0.741,-0.808 -0.407,-0.13 -1.25,-1.171 -1.873,-2.315 -1.272,-2.337 -1.91,-3.139 -4.822,-6.061 -1.121,-1.124 -2.374,-2.628 -2.787,-3.343 -0.412,-0.715 -0.891,-1.3 -1.063,-1.3 -0.173,0 -0.314,-0.175 -0.314,-0.389 0,-0.213 -0.743,-1.068 -1.65,-1.9 -0.908,-0.831 -2.805,-2.681 -4.215,-4.111 -3.386,-3.433 -4.423,-4.468 -6.335,-6.325 -0.88,-0.855 -1.792,-1.806 -2.026,-2.114 -0.234,-0.309 -1.013,-1.011 -1.729,-1.561 -0.717,-0.55 -1.85,-1.495 -2.517,-2.1 -0.667,-0.605 -1.381,-1.1 -1.586,-1.1 -0.206,0 -1.132,-0.732 -2.058,-1.627 -3.079,-2.976 -3.31,-3.173 -3.71,-3.173 -0.218,0 -0.657,-0.36 -0.974,-0.8 -0.317,-0.44 -0.852,-0.801 -1.188,-0.802 -0.337,-0.001 -1.439,-0.766 -2.449,-1.7 -2.422,-2.238 -3.502,-3.098 -3.892,-3.098 -0.176,0 -0.669,-0.322 -1.096,-0.715 -0.426,-0.393 -1.353,-0.952 -2.06,-1.242 -0.707,-0.29 -1.791,-1.004 -2.409,-1.585 -1.034,-0.974 -2.767,-2.194 -5.312,-3.741 -0.553,-0.337 -1.588,-0.74 -2.3,-0.896 -0.712,-0.157 -1.294,-0.45 -1.294,-0.653 0,-0.202 -0.23,-0.368 -0.512,-0.368 -0.281,0 -0.771,-0.36 -1.088,-0.8 -0.317,-0.44 -0.897,-0.8 -1.288,-0.8 -0.392,0 -0.712,-0.15 -0.712,-0.332 0,-0.316 -0.883,-0.813 -2.9,-1.634 -0.495,-0.202 -1.485,-0.606 -2.2,-0.898 -0.715,-0.292 -1.3,-0.667 -1.3,-0.834 0,-0.166 -0.27,-0.302 -0.6,-0.302 -0.33,0 -0.6,-0.135 -0.6,-0.301 0,-0.165 -0.855,-0.723 -1.9,-1.24 -1.045,-0.517 -2.213,-1.102 -2.595,-1.299 -0.382,-0.198 -0.967,-0.36 -1.3,-0.36 -0.333,0 -0.605,-0.18 -0.605,-0.4 0,-0.22 -0.442,-0.4 -0.981,-0.4 -1.098,0 -3.019,-0.774 -3.019,-1.216 0,-0.158 -0.585,-0.51 -1.3,-0.783 -0.715,-0.273 -2.055,-0.831 -2.978,-1.24 -0.923,-0.41 -2.412,-0.862 -3.309,-1.005 -0.897,-0.144 -1.727,-0.417 -1.845,-0.609 -0.119,-0.191 -0.57,-0.347 -1.004,-0.347 -0.434,0 -0.881,-0.24 -0.994,-0.533 -0.112,-0.294 -0.422,-0.564 -0.687,-0.601 -2.406,-0.335 -3.524,-0.609 -3.71,-0.91 -0.121,-0.196 -0.649,-0.356 -1.173,-0.356 -0.524,0 -1.064,-0.18 -1.2,-0.4 -0.136,-0.22 -0.856,-0.4 -1.6,-0.4 -0.744,0 -1.464,-0.18 -1.6,-0.4 -0.136,-0.22 -0.687,-0.4 -1.224,-0.4 -0.537,0 -0.976,-0.18 -0.976,-0.4 0,-0.22 -0.529,-0.4 -1.176,-0.4 -0.647,0 -1.288,-0.18 -1.424,-0.4 -0.136,-0.22 -0.777,-0.4 -1.424,-0.4 -0.647,0 -1.176,-0.18 -1.176,-0.4 0,-0.22 -0.889,-0.4 -1.976,-0.4 -1.087,0 -2.088,-0.18 -2.224,-0.4 -0.136,-0.22 -0.867,-0.4 -1.624,-0.4 -0.757,0 -1.376,-0.18 -1.376,-0.4 0,-0.22 -0.799,-0.4 -1.776,-0.4 -0.977,0 -1.888,-0.18 -2.024,-0.4 -0.136,-0.22 -1.047,-0.4 -2.024,-0.4 -0.977,0 -1.776,-0.18 -1.776,-0.4 0,-0.222 -1.067,-0.4 -2.4,-0.4 -1.333,0 -2.4,-0.178 -2.4,-0.4 0,-0.227 -1.173,-0.4 -2.72,-0.4 -1.58,0 -2.921,-0.201 -3.199,-0.479 -0.587,-0.587 -40.214,-0.83 -45.881,-0.283 m 129.681,109.212 c 3.769,1.515 5.316,2.847 6.778,5.835 l 1.052,2.15 -0.042,76.502 c -0.047,84.959 0.194,77.841 -2.751,81.101 -0.805,0.891 -2.196,2.012 -3.091,2.491 l -1.627,0.871 -38.4,0.2 -38.4,0.2 -0.105,13.3 -0.106,13.3 8.106,0.009 c 7.043,0.007 8.32,0.106 9.747,0.754 3.191,1.45 4.1,5.559 1.808,8.178 -1.693,1.935 0.425,1.859 -51.771,1.859 h -48.961 l -1.353,-0.912 c -3.439,-2.318 -3.112,-7.274 0.598,-9.07 1.531,-0.741 2.449,-0.818 9.769,-0.818 h 8.079 l -0.106,-13.3 -0.105,-13.3 -38.2,-0.2 -38.2,-0.2 -1.895,-0.934 c -2.335,-1.149 -4.739,-3.823 -5.405003,-6.011 -0.643,-2.114 -0.742,-154.658 -0.1,-155.055 0.22,-0.136 0.4,-0.571 0.4,-0.967 0,-1.211 3.227003,-4.488 5.388003,-5.472 l 2.012,-0.915 107.881,-0.023 c 79.003,-0.017 108.181,0.097 109,0.427"
                         id="path2" />
                      <path
                         style="fill:#7b9793;fill-rule:evenodd;stroke:none"
                         inkscape:connector-curvature="0"
                         d="m 157.75424,109.5 c 28.105,0.057 74.095,0.057 102.2,0 28.105,-0.057 5.11,-0.103 -51.1,-0.103 -56.21,0 -79.205,0.046 -51.1,0.103 m 158.616,-0.003 c 1.383,0.078 3.543,0.077 4.8,-0.002 1.256,-0.079 0.124,-0.143 -2.516,-0.142 -2.64,0 -3.668,0.065 -2.284,0.144 m -214.593,3.095 c -1.168,1.205 -2.123003,2.402 -2.123003,2.66 0,0.257 0.521003,-0.251 1.157003,-1.13 0.637,-0.878 1.762,-2.073 2.5,-2.655 0.739,-0.582 1.173,-1.06 0.966,-1.063 -0.208,-0.002 -1.333,0.982 -2.5,2.188 m 229.986,23.808 c 0,0.99 0.078,1.395 0.173,0.9 0.096,-0.495 0.096,-1.305 0,-1.8 -0.095,-0.495 -0.173,-0.09 -0.173,0.9 m -161.018,11.889 c 0.71,0.088 1.97,0.09 2.8,0.003 0.83,-0.087 0.249,-0.159 -1.291,-0.161 -1.54,-0.002 -2.219,0.069 -1.509,0.158 m 41.814,-0.002 c 0.609,0.092 1.509,0.09 2,-0.005 0.492,-0.095 -0.005,-0.171 -1.105,-0.168 -1.1,0.003 -1.503,0.081 -0.895,0.173 m 42.595,-0.005 c 0.495,0.096 1.305,0.096 1.8,0 0.495,-0.095 0.09,-0.173 -0.9,-0.173 -0.99,0 -1.395,0.078 -0.9,0.173 m -88.9,0.518 c -1.089,0.277 -1.107,0.307 -0.2,0.325 0.55,0.01 1.36,-0.136 1.8,-0.325 0.986,-0.424 0.066,-0.424 -1.6,0 m 10.6,0 c 0.55,0.176 1.36,0.32 1.8,0.32 0.633,0 0.592,-0.066 -0.2,-0.32 -0.55,-0.176 -1.36,-0.32 -1.8,-0.32 -0.633,0 -0.592,0.066 0.2,0.32 m 29.8,0 c -1.07,0.272 -1.092,0.305 -0.2,0.305 0.55,0 1.54,-0.137 2.2,-0.305 1.07,-0.272 1.092,-0.305 0.2,-0.305 -0.55,0 -1.54,0.137 -2.2,0.305 m 10.6,0 c 0.55,0.176 1.45,0.317 2,0.313 0.898,-0.007 0.878,-0.039 -0.2,-0.313 -1.692,-0.431 -3.144,-0.431 -1.8,0 m 33,0 c -1.078,0.274 -1.098,0.306 -0.2,0.313 0.55,0.004 1.45,-0.137 2,-0.313 1.344,-0.431 -0.108,-0.431 -1.8,0 m -27.4,1.334 c 0,0.103 0.581,0.39 1.291,0.638 0.71,0.247 1.115,0.285 0.9,0.084 -0.456,-0.427 -2.191,-0.998 -2.191,-0.722 m -23.2,1.517 c -0.99,0.674 -2.16,1.596 -2.6,2.048 -0.632,0.65 -0.519,0.621 0.539,-0.138 0.736,-0.529 2.086,-1.453 3,-2.053 0.913,-0.601 1.481,-1.091 1.261,-1.088 -0.22,0.003 -1.21,0.557 -2.2,1.231 m 44.4,-0.415 c -0.664,0.543 -0.731,0.679 -0.2,0.404 1.305,-0.674 2.028,-1.228 1.6,-1.225 -0.22,0.002 -0.85,0.371 -1.4,0.821 m 87.709,0.764 c 0,0.99 0.078,1.395 0.173,0.9 0.096,-0.495 0.096,-1.305 0,-1.8 -0.095,-0.495 -0.173,-0.09 -0.173,0.9 m -104.702,0.257 c 2.662,1.766 3.422,2.608 3.178,3.516 -0.206,0.762 -0.187,0.77 0.232,0.098 0.598,-0.957 -3.125,-4.671 -4.682,-4.671 -0.176,0 0.396,0.476 1.272,1.057 m -70.724,1.843 -2.155,2.1 2.036,-1.766 c 1.12,-0.972 2.207,-1.917 2.416,-2.1 0.209,-0.184 0.262,-0.334 0.119,-0.334 -0.144,0 -1.231,0.945 -2.416,2.1 m 30.717,-1.137 c 0.66,0.581 1.155,1.232 1.1,1.447 -0.055,0.214 0.095,0.39 0.333,0.39 0.759,0 0.169,-0.899 -1.255,-1.912 l -1.378,-0.981 1.2,1.056 m 54.2,0.286 c -1.394,1.222 -1.395,1.223 -0.112,0.37 0.708,-0.471 1.394,-1.028 1.524,-1.238 0.385,-0.624 0.065,-0.427 -1.412,0.868 m -46.751,3.803 c -0.666,1.462 -0.375,1.543 0.44,0.122 0.371,-0.646 0.531,-1.174 0.357,-1.174 -0.175,0 -0.533,0.473 -0.797,1.052 m -8.949,0.765 c -0.605,0.711 -1.1,1.409 -1.1,1.552 0,0.142 0.564,-0.383 1.253,-1.169 0.69,-0.785 1.185,-1.483 1.1,-1.551 -0.084,-0.069 -0.648,0.457 -1.253,1.168 m -33.005,0.406 c -0.492,0.751 -0.895,1.5 -0.895,1.664 0,0.164 0.466,-0.387 1.036,-1.225 0.569,-0.838 0.972,-1.587 0.895,-1.664 -0.077,-0.078 -0.543,0.474 -1.036,1.225 m 74.591,1.077 c -2.019,2.276 -2.292,2.455 -3.046,2 -1.143,-0.689 -1.564,-0.629 -0.616,0.087 1.428,1.081 1.589,0.978 5.159,-3.287 1.907,-2.279 0.805,-1.395 -1.497,1.2 m 28.821,-1.41 c 0.719,0.089 1.799,0.087 2.4,-0.004 0.601,-0.091 0.013,-0.164 -1.307,-0.162 -1.32,0.002 -1.812,0.077 -1.093,0.166 m -5.511,2.21 c -0.436,0.715 -0.773,1.84 -0.749,2.5 0.043,1.133 0.061,1.118 0.33,-0.266 0.157,-0.806 0.591,-1.931 0.964,-2.5 0.372,-0.569 0.581,-1.034 0.462,-1.034 -0.118,0 -0.571,0.585 -1.007,1.3 m -56.929,-0.633 c -0.147,0.146 -0.256,0.641 -0.242,1.1 0.024,0.766 0.057,0.756 0.409,-0.125 0.392,-0.979 0.31,-1.453 -0.167,-0.975 m 43.489,0.304 c -0.121,0.314 -0.152,0.989 -0.07,1.5 0.109,0.683 0.202,0.533 0.351,-0.571 0.21,-1.553 0.099,-1.919 -0.281,-0.929 m -71.386,0.897 -0.97,1.068 1.087,-0.768 c 0.599,-0.422 1.094,-0.903 1.1,-1.068 0.021,-0.493 -0.198,-0.354 -1.217,0.768 m 40.602,1.103 c -0.135,0.534 -0.059,1.299 0.166,1.7 0.329,0.584 0.407,0.392 0.389,-0.971 -0.024,-1.921 -0.199,-2.15 -0.555,-0.729 m -56.495,2.367 c -0.262,0.726 -0.468,1.576 -0.458,1.89 0.011,0.315 0.293,-0.21 0.628,-1.167 0.335,-0.956 0.541,-1.806 0.458,-1.89 -0.083,-0.083 -0.366,0.442 -0.628,1.167 m 87.129,1.695 c 0.003,0.642 0.178,1.437 0.389,1.767 0.26,0.409 0.304,0.09 0.137,-1 -0.303,-1.977 -0.534,-2.314 -0.526,-0.767 m -43.572,0.367 c -0.012,0.44 0.153,1.07 0.366,1.4 0.514,0.795 0.514,-0.204 0,-1.4 l -0.344,-0.8 -0.022,0.8 m 138.475,1.4 c 0,0.99 0.078,1.395 0.173,0.9 0.096,-0.495 0.096,-1.305 0,-1.8 -0.095,-0.495 -0.173,-0.09 -0.173,0.9 m -183.06,-0.185 c -0.137,0.358 -0.225,1.311 -0.196,2.118 0.048,1.311 0.085,1.254 0.342,-0.533 0.308,-2.129 0.26,-2.642 -0.146,-1.585 m 62.182,-0.264 c 0.863,0.563 4.406,1.746 4.611,1.54 0.092,-0.092 -0.69,-0.448 -1.738,-0.792 -1.047,-0.344 -2.264,-0.746 -2.704,-0.893 -0.651,-0.217 -0.682,-0.19 -0.169,0.145 m -48.777,0.649 c -0.035,0.44 -0.165,1.25 -0.287,1.8 -0.192,0.863 -0.16,0.903 0.231,0.29 0.249,-0.391 0.379,-1.201 0.288,-1.8 -0.108,-0.711 -0.189,-0.811 -0.232,-0.29 m 33.5,3.736 c 0.445,0.624 1.129,1.389 1.52,1.7 0.391,0.31 0.114,-0.201 -0.615,-1.136 -1.485,-1.904 -2.157,-2.323 -0.905,-0.564 m -47.412,3.464 c -10e-4,1.98 0.066,2.84 0.15,1.912 0.084,-0.928 0.085,-2.548 0.003,-3.6 -0.083,-1.052 -0.152,-0.292 -0.153,1.688 m 75.201,-2.915 c 2.758,1.912 4.381,3.34 5.253,4.623 0.552,0.813 1.004,1.275 1.004,1.028 0,-0.84 -3.491,-4.332 -5.249,-5.251 -0.963,-0.503 -1.417,-0.683 -1.008,-0.4 m -62.019,2.915 c 0.002,1.32 0.077,1.812 0.166,1.093 0.089,-0.719 0.087,-1.799 -0.004,-2.4 -0.091,-0.601 -0.164,-0.013 -0.162,1.307 m 36.676,-1.115 c 0,0.349 1.599,1.453 1.8,1.243 0.067,-0.071 -0.311,-0.451 -0.839,-0.847 -0.529,-0.395 -0.961,-0.573 -0.961,-0.396 m -49.533,6.395 c -0.144,3.596 4.69,15.496 5.831,14.355 0.073,-0.073 -0.562,-1.19 -1.411,-2.484 -2.246,-3.422 -3.883,-8.064 -4.216,-11.951 l -0.137,-1.6 -0.067,1.68 m 60.84,-0.856 c 0.348,0.367 3.082,1.369 3.693,1.354 0.453,-0.011 -1.55,-0.922 -3.026,-1.377 -0.536,-0.165 -0.836,-0.155 -0.667,0.023 m -47.469,1.976 c 0.332,1.984 0.564,2.304 0.556,0.767 -0.003,-0.642 -0.19,-1.437 -0.415,-1.767 -0.293,-0.43 -0.333,-0.146 -0.141,1 m 51.965,-0.195 c 0.134,0.217 0.498,0.395 0.807,0.395 0.31,0 1.22,0.657 2.022,1.459 0.812,0.812 1.262,1.09 1.014,0.628 -0.466,-0.872 -2.142,-2.175 -3.367,-2.617 -0.43,-0.156 -0.622,-0.101 -0.476,0.135 m 117.906,1.995 c 0,0.99 0.078,1.395 0.173,0.9 0.096,-0.495 0.096,-1.305 0,-1.8 -0.095,-0.495 -0.173,-0.09 -0.173,0.9 m -100.4,2.4 c 0,0.99 0.078,1.395 0.173,0.9 0.096,-0.495 0.096,-1.305 0,-1.8 -0.095,-0.495 -0.173,-0.09 -0.173,0.9 m -13.309,0.826 c 0,0.895 -0.19,2.02 -0.422,2.5 -0.408,0.844 -0.401,0.848 0.2,0.098 0.561,-0.701 0.913,-4.224 0.422,-4.224 -0.11,0 -0.2,0.732 -0.2,1.626 m -53.704,1.374 c 0.445,0.828 2.504,2.904 2.504,2.526 0,-0.118 -0.66,-0.914 -1.468,-1.77 -0.807,-0.856 -1.273,-1.196 -1.036,-0.756 m 30.882,0.9 -1.378,1.5 1.465,-1.345 c 0.905,-0.83 1.656,-1.228 1.962,-1.038 0.32,0.198 0.395,0.142 0.211,-0.155 -0.447,-0.723 -0.783,-0.569 -2.26,1.038 m -13.897,0.272 c -0.725,0.512 -1.445,1.068 -1.6,1.234 -0.452,0.486 1.629,-0.655 2.673,-1.466 1.373,-1.065 0.493,-0.876 -1.073,0.232 m 55.294,2.328 -1.175,1.3 1.3,-1.175 c 0.715,-0.646 1.3,-1.231 1.3,-1.3 0,-0.309 -0.33,-0.037 -1.425,1.175 m -50.151,0.2 c 0.53,0.605 1.124,1.28 1.319,1.5 0.508,0.573 -0.422,-1.064 -1.08,-1.9 -0.303,-0.385 -0.698,-0.7 -0.877,-0.7 -0.179,0 0.108,0.495 0.638,1.1 m -11.224,0.1 c -0.533,0.345 -0.533,0.388 0,0.388 0.33,0 0.87,-0.175 1.2,-0.388 0.533,-0.345 0.533,-0.388 0,-0.388 -0.33,0 -0.87,0.175 -1.2,0.388 m 15.728,1.491 c -0.48,0.592 -0.762,1.255 -0.627,1.473 0.141,0.227 0.321,0.149 0.423,-0.184 0.098,-0.319 0.546,-0.985 0.997,-1.48 0.45,-0.495 0.652,-0.897 0.449,-0.892 -0.204,0.004 -0.762,0.492 -1.242,1.083 m 17.763,-0.802 c 0.71,0.088 1.97,0.09 2.8,0.003 0.83,-0.087 0.249,-0.159 -1.291,-0.161 -1.54,-0.002 -2.219,0.069 -1.509,0.158 m 41.809,-0.013 c 0.385,0.1 1.015,0.1 1.4,0 0.385,-0.101 0.07,-0.183 -0.7,-0.183 -0.77,0 -1.085,0.082 -0.7,0.183 m -61.7,2.6 c 0,0.288 -0.675,1.124 -1.5,1.857 -1.187,1.055 -1.249,1.168 -0.3,0.543 1.736,-1.143 2.74,-2.342 2.226,-2.66 -0.234,-0.145 -0.426,-0.028 -0.426,0.26 m 3.2,1.324 c 0.745,0.55 1.455,0.999 1.578,0.998 0.377,-0.003 -2.154,-1.968 -2.556,-1.984 -0.207,-0.008 0.233,0.436 0.978,0.986 m 139.709,2.6 c 0,0.99 0.078,1.395 0.173,0.9 0.096,-0.495 0.096,-1.305 0,-1.8 -0.095,-0.495 -0.173,-0.09 -0.173,0.9 m -173.123,-0.423 c 0.251,0.407 4.616,2.555 4.804,2.365 0.078,-0.078 -1.017,-0.715 -2.431,-1.415 -1.415,-0.699 -2.483,-1.127 -2.373,-0.95 m 25.614,0.423 c -0.66,0.437 -1.02,0.792 -0.8,0.788 0.401,-0.006 2.576,-1.565 2.2,-1.576 -0.11,-0.004 -0.74,0.351 -1.4,0.788 m 11,-0.604 c 0,0.274 2.449,1.488 2.632,1.305 0.087,-0.087 -0.47,-0.457 -1.237,-0.823 -0.767,-0.366 -1.395,-0.583 -1.395,-0.482 m -15.6,2.429 c -0.77,0.291 -1.106,0.54 -0.746,0.552 0.36,0.013 1.26,-0.24 2,-0.561 1.666,-0.724 0.662,-0.716 -1.254,0.009 m -14.8,0.575 c 1.368,0.438 2.419,0.438 1.4,0 -0.44,-0.189 -1.16,-0.338 -1.6,-0.332 -0.643,0.009 -0.604,0.075 0.2,0.332 m 4.7,0.696 c 1.375,0.078 3.625,0.078 5,0 1.375,-0.078 0.25,-0.142 -2.5,-0.142 -2.75,0 -3.875,0.064 -2.5,0.142 m 162.209,12.504 c 0,0.99 0.078,1.395 0.173,0.9 0.096,-0.495 0.096,-1.305 0,-1.8 -0.095,-0.495 -0.173,-0.09 -0.173,0.9 m 0,15.6 c 0,0.99 0.078,1.395 0.173,0.9 0.096,-0.495 0.096,-1.305 0,-1.8 -0.095,-0.495 -0.173,-0.09 -0.173,0.9 m -232.910003,6.2 c -10e-4,0.249 1.248003,0.333 3.300003,0.223 3.362,-0.18 3.111,-0.308 -1,-0.51 -1.342003,-0.066 -2.300003,0.054 -2.300003,0.287 m 12.901003,0.097 c 1.705,0.075 4.495,0.075 6.2,0 1.705,-0.075 0.31,-0.136 -3.1,-0.136 -3.41,0 -4.805,0.061 -3.1,0.136 m 15.6,0 c 1.705,0.075 4.495,0.075 6.2,0 1.705,-0.075 0.31,-0.136 -3.1,-0.136 -3.41,0 -4.805,0.061 -3.1,0.136 m 15.6,0 c 1.705,0.075 4.495,0.075 6.2,0 1.705,-0.075 0.31,-0.136 -3.1,-0.136 -3.41,0 -4.805,0.061 -3.1,0.136 m 15.6,0 c 1.705,0.075 4.495,0.075 6.2,0 1.705,-0.075 0.31,-0.136 -3.1,-0.136 -3.41,0 -4.805,0.061 -3.1,0.136 m 52.232,0.003 c 22.292,0.057 58.652,0.057 80.8,0 22.147,-0.057 3.908,-0.104 -40.532,-0.104 -44.44,0 -62.561,0.047 -40.268,0.104"
                         id="path3" />
                      <path
                         style="fill:#9c9c9c;fill-rule:evenodd;stroke:none"
                         inkscape:connector-curvature="0"
                         d="m 167.97024,148.728 c -0.377,0.15 1.661,0.272 4.527,0.273 2.867,0 4.795,-0.117 4.284,-0.26 -1.234,-0.348 -7.945,-0.357 -8.811,-0.013 m 40.684,0.036 c -0.66,0.149 1.195,0.262 4.123,0.253 2.927,-0.009 4.907,-0.134 4.4,-0.277 -1.202,-0.339 -6.98,-0.322 -8.523,0.024 m 43.416,-0.01 c -0.541,0.151 1.349,0.272 4.2,0.269 2.851,-0.002 4.644,-0.122 3.984,-0.266 -1.59,-0.348 -6.943,-0.349 -8.184,-0.003 m -87.616,0.846 c -0.795,0.514 0.204,0.514 1.4,0 l 0.8,-0.344 -0.8,-0.022 c -0.44,-0.012 -1.07,0.153 -1.4,0.366 m 14.4,0 c 1.368,0.438 2.419,0.438 1.4,0 -0.44,-0.189 -1.16,-0.338 -1.6,-0.332 -0.643,0.009 -0.604,0.075 0.2,0.332 m 26,0 c -0.795,0.514 0.204,0.514 1.4,0 l 0.8,-0.344 -0.8,-0.022 c -0.44,-0.012 -1.07,0.153 -1.4,0.366 m 14.8,0 c 1.368,0.438 2.419,0.438 1.4,0 -0.44,-0.189 -1.16,-0.338 -1.6,-0.332 -0.643,0.009 -0.604,0.075 0.2,0.332 m 28.8,0 c -0.795,0.514 0.204,0.514 1.4,0 l 0.8,-0.344 -0.8,-0.022 c -0.44,-0.012 -1.07,0.153 -1.4,0.366 m 14.4,0 c 1.368,0.438 2.419,0.438 1.4,0 -0.44,-0.189 -1.16,-0.338 -1.6,-0.332 -0.643,0.009 -0.604,0.075 0.2,0.332 m -79.4,1.663 c 5.232,2.67 5.231,2.69 -0.411,9.06 -0.375,0.423 -0.835,0.297 -2.426,-0.667 -1.08,-0.653 -2.413,-1.302 -2.963,-1.44 -0.55,-0.139 0.042,0.28 1.315,0.929 1.273,0.65 2.598,1.417 2.945,1.704 0.539,0.448 0.806,0.323 1.84,-0.863 0.666,-0.762 1.7,-1.938 2.298,-2.612 2.492,-2.811 2.579,-3.144 1.112,-4.262 -1.383,-1.054 -5.265,-3.125 -5.797,-3.093 -0.172,0.011 0.767,0.571 2.087,1.244 m 18.5,-0.634 c -0.605,0.328 -1.1,0.672 -1.1,0.763 0,0.17 2.862,-0.946 3.167,-1.234 0.428,-0.406 -1.087,-0.061 -2.067,0.471 m 22.597,0.767 c 6.124,3.085 6.225,3.316 3.045,6.976 -2.877,3.31 -2.439,3.193 -5.37,1.428 -1.279,-0.77 -2.601,-1.4 -2.937,-1.4 -0.337,0 0.379,0.514 1.591,1.143 1.212,0.629 2.616,1.394 3.12,1.7 0.924,0.562 3.548,-1.729 5.958,-5.202 0.832,-1.199 -0.96,-2.959 -4.957,-4.866 -3.401,-1.623 -3.76,-1.446 -0.45,0.221 m 20.283,-0.289 c -4.214,2.53 -6.891,5.759 -7.378,8.897 -0.175,1.125 -0.076,1.002 0.51,-0.629 1.299,-3.622 3.694,-6.228 7.488,-8.149 1.32,-0.669 2.13,-1.215 1.8,-1.214 -0.33,0.001 -1.419,0.494 -2.42,1.095 m -85.874,1.147 c -3.636,2.467 -8.544,8.825 -8.493,11.002 0.006,0.299 0.51,-0.457 1.118,-1.68 2.123,-4.267 5.495,-8.056 8.569,-9.626 1.408,-0.719 1.886,-1.171 1.2,-1.134 -0.165,0.009 -1.242,0.656 -2.394,1.438 m 108.776,-1.239 c 0.607,0.607 4.745,2.9 4.329,2.398 -0.268,-0.323 -1.303,-1.043 -2.3,-1.6 -1.722,-0.963 -2.5,-1.269 -2.029,-0.798 m -69.288,1.945 c -1.749,1.384 -4.394,5.116 -4.394,6.2 0,0.328 0.459,-0.323 1.019,-1.448 0.938,-1.882 2.793,-4.012 4.781,-5.491 0.44,-0.328 0.69,-0.601 0.556,-0.608 -0.134,-0.007 -1.017,0.599 -1.962,1.347 m 74.777,1.54 c 0.598,0.794 0.47,1.033 -1.931,3.6 -0.771,0.825 -1.275,1.5 -1.12,1.5 0.32,0 3.099,-2.985 3.624,-3.891 0.229,-0.397 0.104,-0.811 -0.379,-1.251 -0.674,-0.615 -0.687,-0.612 -0.194,0.042 m -62.203,3.054 c -0.898,0.155 -2.248,0.676 -3,1.157 -1.746,1.118 -1.271,1.159 0.604,0.052 1.245,-0.734 1.927,-0.819 5.597,-0.7 2.298,0.076 3.965,0.022 3.705,-0.119 -0.811,-0.437 -5.194,-0.685 -6.906,-0.39 m 45.332,-0.072 c 0.495,0.096 1.305,0.096 1.8,0 0.495,-0.095 0.09,-0.173 -0.9,-0.173 -0.99,0 -1.395,0.078 -0.9,0.173 m -88.211,0.988 c -2.672,1.295 -6.11,5.948 -6.08,8.226 0.006,0.387 0.447,-0.359 0.981,-1.659 2.078,-5.053 4.425,-6.71 10.01,-7.067 l 3.6,-0.23 -3.4,-0.05 c -2.696,-0.04 -3.754,0.122 -5.111,0.78 m 98.436,1.998 1.925,1.259 0.875,-0.948 0.875,-0.949 -0.894,0.742 c -0.879,0.728 -0.923,0.723 -2.492,-0.315 -0.878,-0.581 -1.736,-1.055 -1.905,-1.052 -0.17,0.002 0.557,0.571 1.616,1.263 m -73.073,0.432 c -0.318,1.187 -0.269,4.316 0.082,5.202 0.153,0.386 0.275,-0.829 0.272,-2.7 -0.007,-3.758 -0.01,-3.784 -0.354,-2.502 m 43.449,2.5 c 0.004,0.88 0.086,1.193 0.182,0.695 0.096,-0.497 0.092,-1.217 -0.008,-1.6 -0.1,-0.382 -0.179,0.025 -0.174,0.905 m -30.901,-0.039 c 0,1.508 4.128,4.75 5.875,4.614 0.179,-0.014 -0.658,-0.51 -1.86,-1.102 -1.287,-0.634 -2.562,-1.635 -3.1,-2.434 -0.503,-0.746 -0.915,-1.232 -0.915,-1.078 m 44.4,1.994 c 0,0.276 2.821,1.957 2.994,1.784 0.084,-0.084 -0.556,-0.559 -1.421,-1.057 -0.865,-0.498 -1.573,-0.825 -1.573,-0.727 m -13.144,0.845 c 0,0.44 0.155,1.16 0.344,1.6 l 0.344,0.8 v -0.8 c 0,-0.44 -0.155,-1.16 -0.344,-1.6 l -0.344,-0.8 v 0.8 m -88.278,1.578 c -0.151,0.803 -0.184,1.549 -0.074,1.659 0.11,0.11 0.323,-0.456 0.474,-1.259 0.15,-0.803 0.184,-1.55 0.074,-1.66 -0.11,-0.11 -0.324,0.457 -0.474,1.26 m 12.478,0.706 c -0.135,0.504 -0.225,1.726 -0.2,2.716 0.041,1.624 0.078,1.547 0.379,-0.782 0.343,-2.647 0.258,-3.564 -0.179,-1.934 m 51.344,-0.084 c 0.33,0.213 0.87,0.388 1.2,0.388 0.533,0 0.533,-0.043 0,-0.388 -0.33,-0.213 -0.87,-0.388 -1.2,-0.388 -0.533,0 -0.533,0.043 0,0.388 m 2.4,0.8 c 0.33,0.213 0.87,0.388 1.2,0.388 0.533,0 0.533,-0.043 0,-0.388 -0.33,-0.213 -0.87,-0.388 -1.2,-0.388 -0.533,0 -0.533,0.043 0,0.388 m 23.477,0.831 c 0.398,0.677 0.979,1.442 1.291,1.7 0.312,0.258 0.064,-0.296 -0.553,-1.231 -1.295,-1.963 -1.806,-2.288 -0.738,-0.469 m -43.877,-0.263 c 0,0.796 2.879,3.673 5.181,5.178 2.768,1.81 4.23,2.518 3.816,1.849 -0.134,-0.217 -0.417,-0.395 -0.629,-0.395 -1.07,0 -5.616,-3.447 -7.238,-5.488 -0.621,-0.782 -1.13,-1.297 -1.13,-1.144 m -46.252,5.032 c 0,2.31 0.066,3.255 0.147,2.1 0.081,-1.155 0.081,-3.045 0,-4.2 -0.081,-1.155 -0.147,-0.21 -0.147,2.1 m 72.852,-3.2 c 0.136,0.22 0.429,0.4 0.652,0.4 0.74,0 4.127,2.47 5.685,4.146 1.263,1.358 1.387,1.426 0.693,0.382 -1.388,-2.091 -8.248,-6.899 -7.03,-4.928 m 43.033,-0.251 c 0.412,0.368 2.767,1.451 2.767,1.272 0,-0.231 -2.218,-1.421 -2.647,-1.421 -0.157,0 -0.211,0.067 -0.12,0.149 m -24,1.151 c 0.092,0.055 0.707,0.55 1.367,1.1 l 1.2,1 -0.97,-1.1 c -0.533,-0.605 -1.148,-1.1 -1.366,-1.1 -0.219,0 -0.322,0.045 -0.231,0.1 m 27.167,0.411 c 0,0.076 0.585,0.567 1.3,1.09 0.804,0.589 1.084,0.686 0.733,0.254 -0.533,-0.656 -2.033,-1.648 -2.033,-1.344 m -23.8,2.116 c 1.111,0.883 3.841,2.266 4.052,2.054 0.097,-0.096 -0.956,-0.741 -2.338,-1.432 -1.383,-0.691 -2.154,-0.971 -1.714,-0.622 m -82.572,4.206 c 0.016,1.192 0.182,2.527 0.369,2.967 0.206,0.484 0.252,-0.308 0.116,-2 -0.274,-3.413 -0.523,-3.91 -0.485,-0.967 m 46.172,-0.682 c 1.399,0.605 3.4,1.136 3.4,0.903 0,-0.187 -3.789,-1.462 -4.275,-1.438 -0.179,0.008 0.215,0.249 0.875,0.535 m -58.525,2.849 c -0.01,0.66 0.136,1.56 0.325,2 l 0.344,0.8 -0.019,-0.8 c -0.011,-0.44 -0.157,-1.34 -0.325,-2 l -0.305,-1.2 -0.02,1.2 m 111.423,1.162 c 1.295,1.187 1.518,1.664 1.735,3.7 l 0.249,2.338 0.059,-2.099 c 0.057,-2.035 -1.903,-5.301 -3.182,-5.301 -0.191,0 0.322,0.613 1.139,1.362 m -43.03,0.684 c 0.513,0.795 0.998,1.27 1.08,1.056 0.081,-0.213 -0.338,-0.864 -0.932,-1.445 l -1.079,-1.057 0.931,1.446 m 57.274,2.154 c -0.001,1.98 0.066,2.84 0.15,1.912 0.084,-0.928 0.085,-2.548 0.003,-3.6 -0.083,-1.052 -0.152,-0.292 -0.153,1.688 m -43.611,0 c 0.002,1.54 0.074,2.121 0.161,1.291 0.087,-0.83 0.085,-2.09 -0.003,-2.8 -0.089,-0.71 -0.16,-0.031 -0.158,1.509 m -68.917,-1.875 c -0.067,2.466 4.225,7.541 7.109,8.405 3.272,0.98 9.487,0.097 11.049,-1.571 0.32,-0.342 0.217,-0.349 -0.409,-0.028 -6.912,3.546 -13.476,1.742 -16.411,-4.511 -0.728,-1.551 -1.33,-2.584 -1.338,-2.295 m -12.402,1.675 c 0,0.33 0.175,0.87 0.388,1.2 0.345,0.533 0.388,0.533 0.388,0 0,-0.33 -0.175,-0.87 -0.388,-1.2 -0.345,-0.533 -0.388,-0.533 -0.388,0 m 68.881,1.2 c 0,0.77 0.082,1.085 0.183,0.7 0.1,-0.385 0.1,-1.015 0,-1.4 -0.101,-0.385 -0.183,-0.07 -0.183,0.7 m -24.86,4.275 c -1.558,1.691 -2.833,3.358 -2.833,3.703 0,0.977 7.401,5.649 8.884,5.608 0.284,-0.008 -0.744,-0.615 -2.284,-1.348 -3.23,-1.538 -6.201,-3.619 -6.198,-4.341 0.002,-0.273 1.247,-1.847 2.769,-3.497 l 2.766,-3 1.131,0.886 c 6.039,4.726 16.805,5.425 19.755,1.282 0.475,-0.668 0.785,-1.293 0.688,-1.39 -0.097,-0.097 -0.426,0.289 -0.731,0.859 -2.284,4.268 -13.423,3.643 -19.534,-1.097 -1.339,-1.038 -1.272,-1.074 -4.413,2.335 m 45.581,-2.025 c -0.686,0.577 -1.161,1.136 -1.055,1.242 0.106,0.106 0.665,-0.28 1.243,-0.857 0.577,-0.578 1.246,-0.929 1.486,-0.781 0.261,0.161 0.321,0.084 0.15,-0.192 -0.382,-0.619 -0.395,-0.615 -1.824,0.588 m -57.214,0.35 c -0.745,0.55 -1.221,1 -1.056,1 0.164,0 0.961,-0.45 1.77,-1 0.809,-0.55 1.285,-1 1.057,-1 -0.229,0 -1.026,0.45 -1.771,1 m 59.6,-0.315 c 0,0.349 1.599,1.453 1.8,1.243 0.067,-0.071 -0.311,-0.451 -0.839,-0.847 -0.529,-0.395 -0.961,-0.573 -0.961,-0.396 m -55.813,2.498 c 1.008,1.31 2.008,2.491 2.223,2.623 0.857,0.53 0.299,1.714 -1.41,2.994 -1.694,1.27 -2.407,2.009 -1.3,1.349 3.953,-2.357 4.088,-3.063 1.255,-6.57 -2.745,-3.398 -3.297,-3.682 -0.768,-0.396 m 74.77,-0.961 c -0.684,0.758 -1.121,1.378 -0.97,1.378 0.301,0 1.729,-1.509 2.177,-2.3 0.456,-0.806 0.119,-0.548 -1.207,0.922 m -109.348,-0.722 c 0.005,0.165 0.376,0.75 0.824,1.3 l 0.815,1 -0.634,-1.3 c -0.603,-1.235 -1.025,-1.655 -1.005,-1 m 93.591,1.267 c 0.55,0.448 1.255,0.819 1.567,0.824 0.727,0.012 0.545,-0.139 -1.167,-0.964 l -1.4,-0.675 1,0.815 m -8.619,1.333 -1.581,1.7 1.7,-1.581 c 1.581,-1.471 1.884,-1.819 1.581,-1.819 -0.065,0 -0.83,0.765 -1.7,1.7 m -7.149,0.493 c -1.064,1.975 -2.97,3.931 -5.22,5.358 -2.365,1.501 -2.073,1.67 0.391,0.226 2.486,-1.457 6.395,-6.112 5.709,-6.798 -0.081,-0.081 -0.477,0.465 -0.88,1.214 m 18.968,-0.611 c 0.33,0.223 0.945,0.409 1.367,0.412 1.023,0.008 0.704,-0.221 -0.767,-0.55 -0.876,-0.196 -1.038,-0.159 -0.6,0.138 m 24.6,0.818 c -0.341,0.66 -0.531,1.2 -0.421,1.2 0.11,0 0.48,-0.54 0.821,-1.2 0.341,-0.66 0.531,-1.2 0.421,-1.2 -0.11,0 -0.48,0.54 -0.821,1.2 m -119.579,-0.4 c 0.565,1.12 3.03,4 3.424,4 0.215,0 -0.036,-0.428 -0.559,-0.95 -0.523,-0.523 -1.449,-1.558 -2.059,-2.3 -0.609,-0.743 -0.972,-1.08 -0.806,-0.75 m 99.079,0.291 c 0.825,0.087 2.175,0.087 3,0 0.825,-0.086 0.15,-0.157 -1.5,-0.157 -1.65,0 -2.325,0.071 -1.5,0.157 m 18.081,3.409 -1.581,1.7 1.7,-1.581 c 1.581,-1.471 1.884,-1.819 1.581,-1.819 -0.065,0 -0.83,0.765 -1.7,1.7 m -32.581,0.879 c 0,0.11 0.54,0.48 1.2,0.821 0.66,0.341 1.2,0.531 1.2,0.421 0,-0.11 -0.54,-0.48 -1.2,-0.821 -0.66,-0.341 -1.2,-0.531 -1.2,-0.421 m 29.2,1.421 c -0.55,0.43 -0.82,0.782 -0.6,0.782 0.22,0 0.85,-0.352 1.4,-0.782 0.55,-0.43 0.82,-0.782 0.6,-0.782 -0.22,0 -0.85,0.352 -1.4,0.782 m -84.13,0.679 c -0.622,0.326 -1.044,0.681 -0.937,0.787 0.209,0.21 2.667,-0.966 2.667,-1.276 0,-0.298 -0.506,-0.155 -1.73,0.489 m -19.47,1.321 c 0.33,0.213 0.87,0.388 1.2,0.388 0.533,0 0.533,-0.043 0,-0.388 -0.33,-0.213 -0.87,-0.388 -1.2,-0.388 -0.533,0 -0.533,0.043 0,0.388 m 37.6,0 c 0.33,0.213 0.96,0.378 1.4,0.366 l 0.8,-0.022 -0.8,-0.344 c -1.196,-0.514 -2.195,-0.514 -1.4,0 m 44.2,0 c 0.44,0.189 1.07,0.344 1.4,0.344 0.378,0 0.304,-0.127 -0.2,-0.344 -0.44,-0.189 -1.07,-0.344 -1.4,-0.344 -0.378,0 -0.304,0.127 0.2,0.344 m 16.8,0 -0.8,0.344 0.8,0.022 c 0.44,0.012 1.07,-0.153 1.4,-0.366 0.795,-0.514 -0.204,-0.514 -1.4,0 m -95.6,0.8 c 0.44,0.189 1.34,0.335 2,0.325 l 1.2,-0.02 -1.2,-0.305 c -0.66,-0.168 -1.56,-0.314 -2,-0.325 l -0.8,-0.019 0.8,0.344 m 8.8,0 -1.6,0.286 1.8,0.029 c 0.99,0.016 2.16,-0.126 2.6,-0.315 1.024,-0.44 -0.343,-0.44 -2.8,0 m 29.6,0 c 0.66,0.168 1.92,0.306 2.8,0.307 l 1.6,0.001 -1.6,-0.331 c -0.88,-0.182 -2.14,-0.32 -2.8,-0.307 l -1.2,0.025 1.2,0.305 m 9.2,0 -1.6,0.286 1.4,0.017 c 0.77,0.01 1.85,-0.127 2.4,-0.303 1.285,-0.412 0.099,-0.412 -2.2,0 m 34.8,-0.011 c 1.216,0.32 4.873,0.533 4.567,0.266 -0.092,-0.08 -1.427,-0.244 -2.967,-0.364 -1.698,-0.132 -2.328,-0.093 -1.6,0.098 m 8.8,0.011 -1.6,0.286 1.4,0.017 c 0.77,0.01 1.85,-0.127 2.4,-0.303 1.285,-0.412 0.099,-0.412 -2.2,0 m -100.068,35.5 c 32.083,0.056 84.463,0.056 116.4,0 31.938,-0.056 5.688,-0.103 -58.332,-0.103 -64.02,0 -90.15,0.047 -58.068,0.103 m 173.668,34.1 c -0.15,0.473 -0.183,0.95 -0.073,1.06 0.11,0.11 0.323,-0.187 0.473,-0.66 0.15,-0.473 0.183,-0.95 0.073,-1.06 -0.11,-0.11 -0.323,0.187 -0.473,0.66 m -230.845,2.6 c 0.316,0.66 1.167,1.74 1.891,2.4 l 1.318,1.2 -1.182,-1.409 c -0.65,-0.776 -1.501,-1.856 -1.891,-2.4 l -0.709003,-0.991 0.573003,1.2 m 228.026,2.3 -1.581,1.7 1.7,-1.581 c 1.581,-1.471 1.884,-1.819 1.581,-1.819 -0.065,0 -0.83,0.765 -1.7,1.7 m -217.474,2.99 c 0.719,0.089 1.799,0.087 2.4,-0.004 0.601,-0.091 0.013,-0.164 -1.307,-0.162 -1.32,0.002 -1.812,0.077 -1.093,0.166 m 15.6,0 c 0.719,0.089 1.799,0.087 2.4,-0.004 0.601,-0.091 0.013,-0.164 -1.307,-0.162 -1.32,0.002 -1.812,0.077 -1.093,0.166 m 15.6,0 c 0.719,0.089 1.799,0.087 2.4,-0.004 0.601,-0.091 0.013,-0.164 -1.307,-0.162 -1.32,0.002 -1.812,0.077 -1.093,0.166 m 15.6,0 c 0.719,0.089 1.799,0.087 2.4,-0.004 0.601,-0.091 0.013,-0.164 -1.307,-0.162 -1.32,0.002 -1.812,0.077 -1.093,0.166 m 15.6,0 c 0.719,0.089 1.799,0.087 2.4,-0.004 0.601,-0.091 0.013,-0.164 -1.307,-0.162 -1.32,0.002 -1.812,0.077 -1.093,0.166 m 78,0 c 0.719,0.089 1.799,0.087 2.4,-0.004 0.601,-0.091 0.013,-0.164 -1.307,-0.162 -1.32,0.002 -1.812,0.077 -1.093,0.166 m 15.6,0 c 0.719,0.089 1.799,0.087 2.4,-0.004 0.601,-0.091 0.013,-0.164 -1.307,-0.162 -1.32,0.002 -1.812,0.077 -1.093,0.166 m 15.593,-10e-4 c 0.715,0.089 1.885,0.089 2.6,0 0.715,-0.088 0.13,-0.161 -1.3,-0.161 -1.43,0 -2.015,0.073 -1.3,0.161 m 15.6,0 c 0.715,0.089 1.885,0.089 2.6,0 0.715,-0.088 0.13,-0.161 -1.3,-0.161 -1.43,0 -2.015,0.073 -1.3,0.161 m 16.007,10e-4 c 0.719,0.089 1.799,0.087 2.4,-0.004 0.601,-0.091 0.013,-0.164 -1.307,-0.162 -1.32,0.002 -1.812,0.077 -1.093,0.166 m -130.796,13.566 c 0.06,7.401 0.214,13.353 0.34,13.226 0.127,-0.127 0.232,-5.237 0.234,-11.356 0.006,-14.207 -0.023,-15.326 -0.385,-15.326 -0.165,0 -0.25,6.055 -0.189,13.456 m 63.659,-10.956 c -0.103,8.689 0.022,24.026 0.199,24.202 0.115,0.116 0.26,-5.845 0.32,-13.246 0.061,-7.401 -0.024,-13.456 -0.189,-13.456 -0.165,0 -0.313,1.125 -0.33,2.5 m -76.07,24.598 c 2.255,0.072 5.945,0.072 8.2,0 2.255,-0.071 0.41,-0.129 -4.1,-0.129 -4.51,0 -6.355,0.058 -4.1,0.129 m 80.8,0 c 2.255,0.072 5.945,0.072 8.2,0 2.255,-0.071 0.41,-0.129 -4.1,-0.129 -4.51,0 -6.355,0.058 -4.1,0.129"
                         id="path4" />
                    </g>
                  </g>
                </g>
              </g>
            </g>
          </g>
        </g>
      </g>
    </g>
  </g>
</svg>
