<?xml version="1.0" encoding="UTF-8" standalone="no"?>
<svg
   xmlns:dc="http://purl.org/dc/elements/1.1/"
   xmlns:cc="http://creativecommons.org/ns#"
   xmlns:rdf="http://www.w3.org/1999/02/22-rdf-syntax-ns#"
   xmlns:svg="http://www.w3.org/2000/svg"
   xmlns="http://www.w3.org/2000/svg"
   xmlns:sodipodi="http://sodipodi.sourceforge.net/DTD/sodipodi-0.dtd"
   xmlns:inkscape="http://www.inkscape.org/namespaces/inkscape"
   id="svg"
   width="102"
   height="102"
   viewBox="0 0 102 102"
   version="1.1"
   sodipodi:docname="express.svg"
   inkscape:version="0.92.4 (5da689c313, 2019-01-14)">
  <metadata
     id="metadata1088">
    <rdf:RDF>
      <cc:Work
         rdf:about="">
        <dc:format>image/svg+xml</dc:format>
        <dc:type
           rdf:resource="http://purl.org/dc/dcmitype/StillImage" />
        <dc:title></dc:title>
      </cc:Work>
    </rdf:RDF>
  </metadata>
  <defs
     id="defs1086" />
  <sodipodi:namedview
     pagecolor="#ffffff"
     bordercolor="#666666"
     borderopacity="1"
     objecttolerance="10"
     gridtolerance="10"
     guidetolerance="10"
     inkscape:pageopacity="0"
     inkscape:pageshadow="2"
     inkscape:window-width="1366"
     inkscape:window-height="745"
     id="namedview1084"
     showgrid="false"
     inkscape:zoom="0.59"
     inkscape:cx="200"
     inkscape:cy="200"
     inkscape:window-x="-8"
     inkscape:window-y="-8"
     inkscape:window-maximized="1"
     inkscape:current-layer="svg" />
  <g
     id="svgg"
     transform="matrix(0.25689663,0,0,0.25686515,-0.38053021,-0.36531366)">
    <path
       id="path0"
       d="m 57.8,165.356 c -19.546,4.764 -23.491,38.984 -5.738,49.774 7.855,4.774 20.867,3.297 27.477,-3.118 2.513,-2.438 6.061,-9.578 6.061,-12.196 0,-1.312 -3.758,0.126 -4.192,1.605 -1.886,6.415 -6.805,11.305 -12.666,12.592 -12.873,2.826 -22.884,-5.086 -24.188,-19.117 L 44.285,192 H 65.194 86.103 L 85.91,187.7 C 85.184,171.523 72.819,161.694 57.8,165.356 m 98.557,0.024 c -4.578,1.262 -9.593,5.322 -11.557,9.354 -1.453,2.985 -1.6,2.661 -1.6,-3.534 v -5.6 h -1.8 -1.8 v 35.023 35.023 l 1.7,-0.123 1.7,-0.123 0.105,-14.1 c 0.111,-14.83 0.15,-15.13 1.622,-12.356 4.713,8.886 19.078,11.794 29.555,5.984 15.119,-8.385 14.442,-39.421 -1.04,-47.673 -4.32,-2.303 -12.173,-3.175 -16.885,-1.875 m 78.76,0.04 c -18.795,4.557 -23.21,38.918 -6.319,49.179 13.05,7.927 29.669,1.896 33.571,-12.185 l 0.792,-2.856 -1.813,0.121 c -1.785,0.119 -1.825,0.153 -2.519,2.121 -3.208,9.104 -9.176,12.998 -19.18,12.517 -9.895,-0.477 -16.502,-7.669 -17.471,-19.017 l -0.281,-3.3 h 20.851 20.852 v -2.985 c 0,-16.706 -12.882,-27.378 -28.483,-23.595 m 48.6,0.005 c -8.445,1.851 -12.581,7.833 -10.759,15.563 1.426,6.046 6.538,9.12 18.642,11.21 9.351,1.614 15.075,4.798 15.826,8.802 1.513,8.065 -3.375,12.735 -13.907,13.287 -10.431,0.547 -17.863,-4.329 -18.976,-12.45 L 274.291,200 h -1.745 c -2.057,0 -2.155,0.415 -1.128,4.773 1.983,8.412 9.224,13.023 20.382,12.981 13.973,-0.053 21.529,-6.741 19.24,-17.031 -1.518,-6.824 -5.027,-8.987 -19.64,-12.106 -12.086,-2.58 -16.177,-5.809 -15.185,-11.987 1.983,-12.347 29.604,-11.077 29.782,1.37 0.034,2.384 0.376,2.8 2.301,2.8 h 1.805 l -0.273,-2.1 c -1.418,-10.912 -12.106,-16.346 -26.113,-13.275 m 48,0 c -7.073,1.55 -11.024,5.817 -11.088,11.975 -0.088,8.492 4.877,12.365 18.971,14.798 9.351,1.614 15.075,4.798 15.826,8.802 1.513,8.065 -3.375,12.735 -13.907,13.287 -10.431,0.547 -17.863,-4.329 -18.976,-12.45 L 322.291,200 h -1.745 c -2.057,0 -2.155,0.415 -1.128,4.773 1.983,8.412 9.224,13.023 20.382,12.981 13.973,-0.053 21.529,-6.741 19.24,-17.031 -1.518,-6.824 -5.027,-8.987 -19.64,-12.106 -12.086,-2.58 -16.177,-5.809 -15.185,-11.987 1.983,-12.347 29.604,-11.077 29.782,1.37 0.034,2.384 0.376,2.8 2.301,2.8 h 1.805 l -0.273,-2.1 c -1.418,-10.912 -12.106,-16.346 -26.113,-13.275 M 90.341,166.7 c 0.438,0.605 1.98,2.63 3.427,4.5 1.446,1.87 4.145,5.38 5.996,7.8 1.852,2.42 4.466,5.835 5.81,7.589 2.951,3.851 3.841,1.784 -7.003,16.275 C 86.806,218.586 87.835,216.8 90.54,216.8 h 2.232 l 4.687,-6.3 c 14.637,-19.673 13.093,-17.914 14.301,-16.301 1.166,1.556 8.314,11.374 12.742,17.501 l 3.686,5.1 h 2.568 c 2.406,0 2.53,-0.044 1.971,-0.7 -0.328,-0.385 -4.876,-6.423 -10.106,-13.418 l -9.509,-12.717 3.714,-4.883 c 2.043,-2.685 6.204,-8.167 9.248,-12.182 l 5.533,-7.3 h -2.348 -2.348 l -4.556,6.075 c -2.505,3.341 -6.048,8.066 -7.872,10.5 -1.824,2.434 -3.472,4.479 -3.662,4.546 -0.19,0.066 -3.918,-4.656 -8.283,-10.495 l -7.938,-10.615 -2.527,-0.005 -2.527,-0.006 0.795,1.1 M 194,191.2 v 25.6 h 1.976 1.977 l 0.123,-16.9 0.124,-16.9 1.435,-3 c 3.194,-6.677 9.397,-10.8 16.249,-10.8 H 218 v -1.858 -1.857 l -2.9,0.224 c -6.804,0.527 -13.145,4.247 -15.834,9.291 l -1.066,2 -0.111,-5.7 -0.111,-5.7 H 195.989 194 v 25.6 M 71.373,169.529 c 3.486,1.631 6.796,4.961 8.522,8.575 1.276,2.67 2.757,9.062 2.348,10.129 -0.219,0.57 -35.692,0.907 -37.137,0.352 -1.115,-0.428 0.446,-7.003 2.644,-11.133 4.358,-8.187 15.251,-11.841 23.623,-7.923 m 98.375,-0.204 c 16.799,7.691 15.418,39.909 -1.908,44.522 -7.197,1.917 -15.624,-0.29 -19.541,-5.117 -7.078,-8.721 -6.349,-28.332 1.335,-35.885 4.864,-4.782 13.902,-6.364 20.114,-3.52 m 79.244,0.241 c 6.127,3.016 10.173,9.473 10.675,17.034 l 0.133,2 -18.576,0.104 c -10.217,0.057 -18.705,-0.033 -18.864,-0.2 -0.877,-0.928 1.592,-9.328 3.601,-12.247 5.238,-7.613 15.249,-10.522 23.031,-6.691"
       inkscape:connector-curvature="0"
       style="fill:#f7f7f7;fill-rule:evenodd;stroke:none" />
    <path
       id="path1"
       d="m 183.6,5.46 c -1.43,0.083 -2.96,0.308 -3.4,0.498 -0.44,0.19 -3.75,0.651 -7.355,1.025 -3.605,0.373 -6.845,0.832 -7.2,1.019 -0.355,0.187 -2.613,0.643 -5.019,1.012 -2.406,0.369 -4.656,0.823 -5,1.008 -0.344,0.185 -2.066,0.635 -3.826,1.001 -1.76,0.365 -3.38,0.794 -3.6,0.953 -0.22,0.159 -1.885,0.619 -3.7,1.022 -1.815,0.403 -3.3,0.855 -3.3,1.004 0,0.149 -1.035,0.499 -2.3,0.778 -1.265,0.279 -3.02,0.83 -3.9,1.225 -0.88,0.394 -2.357,0.919 -3.283,1.167 -0.926,0.247 -1.772,0.594 -1.881,0.77 -0.109,0.176 -1.286,0.649 -2.617,1.052 -1.33,0.403 -2.419,0.884 -2.419,1.069 0,0.185 -0.281,0.337 -0.625,0.337 -1,0 -18.504,8.413 -19.523,9.384 -0.249,0.237 -1.217,0.769 -2.152,1.184 -0.935,0.414 -1.7,0.894 -1.7,1.066 0,0.172 -0.32,0.414 -0.712,0.538 -0.733,0.233 -4.711,2.668 -5.571,3.411 -0.266,0.229 -0.583,0.417 -0.705,0.417 -0.201,0 -4.661,2.943 -5.612,3.704 -0.22,0.176 -1.39,1.027 -2.6,1.891 -1.21,0.865 -2.485,1.849 -2.834,2.188 -0.348,0.339 -0.792,0.617 -0.985,0.617 -0.194,0 -0.719,0.363 -1.167,0.808 -0.448,0.444 -1.801,1.569 -3.007,2.5 -1.205,0.93 -2.489,1.962 -2.853,2.292 -0.364,0.33 -1.617,1.41 -2.785,2.4 -2.753,2.334 -16.835,16.416 -19.169,19.169 -0.99,1.168 -2.07,2.421 -2.4,2.785 -0.33,0.364 -1.362,1.648 -2.292,2.853 -0.931,1.206 -2.056,2.559 -2.5,3.007 -0.445,0.448 -0.808,0.973 -0.808,1.167 0,0.193 -0.278,0.637 -0.617,0.985 -0.339,0.349 -1.323,1.624 -2.188,2.834 -0.864,1.21 -1.715,2.38 -1.891,2.6 -0.761,0.951 -3.704,5.411 -3.704,5.612 0,0.122 -0.188,0.439 -0.417,0.705 -0.743,0.86 -3.178,4.838 -3.411,5.571 -0.124,0.392 -0.366,0.712 -0.538,0.712 -0.172,0 -0.652,0.765 -1.066,1.7 -0.415,0.935 -0.947,1.903 -1.184,2.152 -0.971,1.019 -9.384,18.523 -9.384,19.523 0,0.344 -0.147,0.625 -0.327,0.625 -0.18,0 -0.651,1.029 -1.048,2.287 -0.396,1.258 -0.949,2.653 -1.229,3.1 -0.279,0.447 -0.742,1.758 -1.027,2.913 -0.286,1.155 -0.651,2.1 -0.811,2.1 -0.159,0 -0.608,1.35 -0.997,3 -0.389,1.65 -0.825,3 -0.969,3 -0.143,0 -0.591,1.485 -0.994,3.3 -0.403,1.815 -0.863,3.48 -1.022,3.7 -0.159,0.22 -0.591,1.84 -0.96,3.6 -0.37,1.76 -0.83,3.56 -1.024,4 -0.193,0.44 -0.646,2.69 -1.007,5 -0.361,2.31 -0.806,4.49 -0.99,4.845 -0.183,0.355 -0.639,3.595 -1.012,7.2 -0.374,3.605 -0.883,6.987 -1.132,7.516 -0.635,1.352 -0.637,38.485 -0.001,39.278 0.248,0.308 0.575,2.212 0.728,4.229 0.152,2.017 0.525,5.167 0.827,7 1.092,6.617 2.247,12.548 2.596,13.332 0.196,0.44 0.634,2.202 0.972,3.916 0.339,1.714 0.774,3.424 0.967,3.8 0.192,0.376 0.672,2.034 1.066,3.684 0.394,1.65 0.826,3.09 0.961,3.2 0.135,0.11 0.573,1.459 0.974,2.998 0.402,1.539 0.862,2.889 1.024,3 0.162,0.111 0.53,1.102 0.819,2.202 0.288,1.1 0.748,2.366 1.022,2.813 0.274,0.447 0.823,1.842 1.219,3.1 0.397,1.258 0.868,2.287 1.048,2.287 0.18,0 0.327,0.269 0.327,0.599 0,1.086 8.728,19.206 9.533,19.791 0.159,0.115 0.626,0.975 1.039,1.91 0.412,0.935 0.902,1.7 1.089,1.7 0.186,0 0.339,0.199 0.339,0.442 0,0.243 0.54,1.242 1.2,2.22 0.66,0.978 1.2,1.915 1.2,2.083 0,0.167 0.315,0.658 0.7,1.092 0.385,0.433 1.046,1.412 1.47,2.175 0.423,0.763 0.877,1.478 1.009,1.588 0.132,0.11 0.581,0.735 0.998,1.39 0.417,0.654 0.908,1.374 1.09,1.6 0.182,0.225 1.04,1.4 1.908,2.61 0.867,1.21 1.858,2.485 2.201,2.834 0.343,0.348 0.624,0.811 0.624,1.027 0,0.217 0.405,0.771 0.9,1.231 0.495,0.459 1.526,1.707 2.292,2.772 0.766,1.065 1.756,2.332 2.2,2.816 0.444,0.483 1.618,1.816 2.608,2.961 0.99,1.145 5.237,5.52 9.438,9.721 6.615,6.615 8.579,8.477 12.48,11.838 0.384,0.33 1.684,1.362 2.889,2.292 1.206,0.931 2.559,2.056 3.007,2.5 0.448,0.445 0.973,0.808 1.167,0.808 0.193,0 0.637,0.281 0.985,0.624 0.349,0.343 1.624,1.334 2.834,2.201 1.21,0.868 2.385,1.726 2.61,1.908 0.226,0.182 0.946,0.673 1.6,1.09 0.655,0.417 1.28,0.866 1.39,0.998 0.11,0.132 0.825,0.586 1.588,1.009 0.763,0.424 1.573,0.913 1.8,1.087 1.074,0.827 4.867,3.11 5.5,3.311 0.392,0.124 0.712,0.366 0.712,0.538 0,0.172 0.765,0.652 1.7,1.066 0.935,0.415 1.903,0.947 2.152,1.184 1.019,0.971 18.523,9.384 19.523,9.384 0.344,0 0.625,0.152 0.625,0.337 0,0.185 1.089,0.666 2.419,1.069 1.331,0.403 2.504,0.869 2.608,1.037 0.103,0.167 1.219,0.603 2.48,0.969 1.261,0.365 2.473,0.811 2.693,0.99 0.22,0.18 1.57,0.629 3,0.998 1.43,0.369 2.78,0.814 3,0.987 0.22,0.174 1.84,0.645 3.6,1.048 1.76,0.403 3.29,0.845 3.4,0.984 0.11,0.139 1.82,0.58 3.8,0.981 1.98,0.401 3.78,0.861 4,1.022 0.22,0.162 2.38,0.596 4.8,0.965 2.42,0.369 4.69,0.824 5.045,1.011 0.355,0.187 3.595,0.646 7.2,1.019 3.605,0.374 6.987,0.883 7.516,1.132 1.352,0.635 37.93,0.634 39.278,-0.002 0.529,-0.249 4.021,-0.765 7.761,-1.146 3.74,-0.381 6.98,-0.826 7.2,-0.987 0.22,-0.162 2.38,-0.611 4.8,-0.997 2.42,-0.386 4.58,-0.836 4.8,-1 0.22,-0.164 2.02,-0.612 4,-0.996 1.98,-0.383 3.78,-0.835 4,-1.004 0.22,-0.169 1.75,-0.627 3.4,-1.017 1.65,-0.39 3.18,-0.837 3.4,-0.992 0.22,-0.156 1.57,-0.6 3,-0.988 1.43,-0.389 2.78,-0.85 3,-1.025 0.22,-0.176 1.432,-0.618 2.693,-0.983 1.261,-0.366 2.377,-0.802 2.48,-0.969 0.104,-0.168 1.277,-0.634 2.608,-1.037 1.33,-0.403 2.419,-0.884 2.419,-1.069 0,-0.185 0.281,-0.337 0.625,-0.337 0.632,0 2.52,-0.815 8.436,-3.642 1.793,-0.857 3.376,-1.558 3.517,-1.558 0.141,0 0.473,-0.18 0.739,-0.4 0.266,-0.22 1.923,-1.145 3.683,-2.055 1.76,-0.91 3.29,-1.77 3.4,-1.911 0.11,-0.141 0.965,-0.593 1.9,-1.006 0.935,-0.412 1.7,-0.902 1.7,-1.089 0,-0.186 0.199,-0.339 0.442,-0.339 0.243,0 1.242,-0.54 2.22,-1.2 0.978,-0.66 1.915,-1.2 2.083,-1.2 0.167,0 0.658,-0.315 1.092,-0.7 0.433,-0.385 1.412,-1.046 2.175,-1.47 0.763,-0.423 1.478,-0.877 1.588,-1.009 0.11,-0.132 0.735,-0.581 1.39,-0.998 0.654,-0.417 1.374,-0.906 1.6,-1.086 1.867,-1.487 4.286,-3.137 4.599,-3.137 0.211,0 0.576,-0.36 0.811,-0.8 0.235,-0.44 0.682,-0.8 0.991,-0.8 0.31,0 0.799,-0.318 1.086,-0.707 0.288,-0.389 1.03,-1.031 1.649,-1.426 1.201,-0.767 2.092,-1.464 3.923,-3.067 0.629,-0.55 2.072,-1.81 3.209,-2.8 2.679,-2.334 16.808,-16.463 19.142,-19.142 0.99,-1.137 2.25,-2.58 2.8,-3.209 1.603,-1.831 2.3,-2.722 3.067,-3.923 0.395,-0.619 1.037,-1.361 1.426,-1.649 0.389,-0.287 0.707,-0.776 0.707,-1.086 0,-0.309 0.36,-0.756 0.8,-0.991 0.44,-0.235 0.8,-0.6 0.8,-0.811 0,-0.313 1.65,-2.732 3.137,-4.599 0.18,-0.226 0.669,-0.946 1.086,-1.6 0.417,-0.655 0.866,-1.28 0.998,-1.39 0.132,-0.11 0.586,-0.825 1.009,-1.588 0.424,-0.763 1.085,-1.742 1.47,-2.175 0.385,-0.434 0.7,-0.925 0.7,-1.092 0,-0.168 0.54,-1.105 1.2,-2.083 0.66,-0.978 1.2,-1.977 1.2,-2.22 0,-0.243 0.153,-0.442 0.339,-0.442 0.187,0 0.677,-0.765 1.089,-1.7 0.413,-0.935 0.88,-1.795 1.039,-1.91 0.805,-0.585 9.533,-18.705 9.533,-19.791 0,-0.33 0.147,-0.599 0.327,-0.599 0.18,0 0.651,-1.029 1.048,-2.287 0.396,-1.258 0.945,-2.653 1.219,-3.1 0.274,-0.447 0.734,-1.713 1.022,-2.813 0.289,-1.1 0.657,-2.091 0.819,-2.202 0.162,-0.111 0.622,-1.461 1.024,-3 0.401,-1.539 0.839,-2.888 0.974,-2.998 0.135,-0.11 0.567,-1.55 0.961,-3.2 0.393,-1.65 0.854,-3.18 1.023,-3.4 0.169,-0.22 0.621,-2.02 1.004,-4 0.384,-1.98 0.83,-3.78 0.993,-4 0.162,-0.22 0.596,-2.29 0.963,-4.6 0.368,-2.31 0.834,-4.56 1.036,-5 0.392,-0.854 1.586,-10.65 1.587,-13.02 0,-0.781 0.225,-1.645 0.5,-1.92 0.682,-0.682 0.728,-37.854 0.049,-39.299 -0.249,-0.529 -0.758,-3.911 -1.132,-7.516 -0.373,-3.605 -0.832,-6.845 -1.019,-7.2 -0.187,-0.355 -0.642,-2.625 -1.011,-5.045 -0.369,-2.42 -0.803,-4.58 -0.965,-4.8 -0.161,-0.22 -0.621,-2.02 -1.022,-4 -0.401,-1.98 -0.845,-3.69 -0.987,-3.8 -0.143,-0.11 -0.593,-1.685 -1.001,-3.5 -0.409,-1.815 -0.861,-3.3 -1.004,-3.3 -0.144,0 -0.58,-1.35 -0.969,-3 -0.389,-1.65 -0.838,-3 -0.997,-3 -0.16,0 -0.525,-0.945 -0.811,-2.1 -0.285,-1.155 -0.748,-2.466 -1.027,-2.913 -0.28,-0.447 -0.833,-1.842 -1.229,-3.1 -0.397,-1.258 -0.868,-2.287 -1.048,-2.287 -0.18,0 -0.327,-0.281 -0.327,-0.625 0,-1 -8.413,-18.504 -9.384,-19.523 -0.237,-0.249 -0.769,-1.217 -1.184,-2.152 -0.414,-0.935 -0.894,-1.7 -1.066,-1.7 -0.172,0 -0.414,-0.32 -0.538,-0.712 -0.201,-0.633 -2.484,-4.426 -3.311,-5.5 -0.174,-0.227 -0.663,-1.037 -1.087,-1.8 -0.423,-0.763 -0.877,-1.478 -1.009,-1.588 -0.132,-0.11 -0.581,-0.735 -0.998,-1.39 -0.417,-0.654 -0.908,-1.374 -1.09,-1.6 -0.182,-0.225 -1.04,-1.4 -1.908,-2.61 -0.867,-1.21 -1.858,-2.485 -2.201,-2.834 -0.343,-0.348 -0.624,-0.792 -0.624,-0.985 0,-0.194 -0.363,-0.719 -0.808,-1.167 -0.444,-0.448 -1.569,-1.801 -2.5,-3.007 -0.93,-1.205 -1.962,-2.505 -2.292,-2.889 -3.361,-3.901 -5.223,-5.865 -11.838,-12.48 -4.201,-4.201 -8.576,-8.448 -9.721,-9.438 -1.145,-0.99 -2.478,-2.164 -2.961,-2.608 -0.484,-0.444 -1.751,-1.434 -2.816,-2.2 -1.065,-0.766 -2.313,-1.797 -2.772,-2.292 -0.46,-0.495 -1.014,-0.9 -1.231,-0.9 -0.216,0 -0.679,-0.281 -1.027,-0.624 -0.349,-0.343 -1.624,-1.334 -2.834,-2.201 -1.21,-0.868 -2.385,-1.726 -2.61,-1.908 -0.226,-0.182 -0.946,-0.673 -1.6,-1.09 -0.655,-0.417 -1.28,-0.866 -1.39,-0.998 -0.11,-0.132 -0.825,-0.586 -1.588,-1.009 -0.763,-0.424 -1.742,-1.085 -2.175,-1.47 -0.434,-0.385 -0.925,-0.7 -1.092,-0.7 -0.168,0 -1.105,-0.54 -2.083,-1.2 -0.978,-0.66 -1.977,-1.2 -2.22,-1.2 -0.243,0 -0.442,-0.153 -0.442,-0.339 0,-0.187 -0.765,-0.677 -1.7,-1.089 -0.935,-0.413 -1.795,-0.88 -1.91,-1.039 -0.585,-0.805 -18.705,-9.533 -19.791,-9.533 -0.33,0 -0.599,-0.152 -0.599,-0.337 0,-0.185 -1.089,-0.666 -2.419,-1.069 -1.331,-0.403 -2.504,-0.869 -2.608,-1.037 -0.103,-0.167 -1.219,-0.603 -2.48,-0.969 -1.261,-0.365 -2.476,-0.814 -2.701,-0.998 -0.224,-0.184 -1.664,-0.647 -3.2,-1.028 -1.535,-0.381 -2.882,-0.816 -2.992,-0.967 -0.11,-0.15 -1.55,-0.6 -3.2,-0.999 -1.65,-0.399 -3.54,-0.944 -4.2,-1.21 -0.66,-0.266 -2.46,-0.71 -4,-0.988 -1.54,-0.277 -2.98,-0.641 -3.2,-0.809 C 243.98,9.822 241.82,9.382 239.4,9.013 236.98,8.644 234.71,8.189 234.355,8.002 234,7.815 230.76,7.359 227.155,6.989 223.55,6.618 220.24,6.119 219.8,5.879 219.017,5.452 189.553,5.11 183.6,5.46 M 73.31,166.147 c 7.975,3.843 12.382,11.215 12.976,21.706 l 0.234,4.14 -20.76,0.103 -20.76,0.104 0.12,2.2 c 0.407,7.49 3.3,13.481 8.08,16.733 9.615,6.541 24.947,1.77 27.424,-8.533 0.693,-2.884 1.257,-3.452 3.297,-3.321 l 1.879,0.121 -0.134,1.4 C 84.974,208.059 78.1,215.641 70.6,217.419 53.01,221.59 40.635,211.012 40.629,191.8 40.624,177.436 46.844,167.866 58.2,164.766 c 3.489,-0.952 11.854,-0.188 15.11,1.381 m 97.89,-0.327 c 9.733,4.309 14.135,12.34 14.134,25.78 -0.002,17.259 -7.896,26.4 -22.798,26.4 -9.203,0 -15.461,-3.098 -18.181,-9 -0.733,-1.59 -0.737,-1.516 -0.746,12.5 l -0.009,14.1 h -2.202 -2.202 l 0.102,-35.1 0.102,-35.1 h 2 2 l 0.2,5.392 0.2,5.392 0.8,-1.788 c 1.718,-3.838 7.439,-8.317 12.427,-9.728 2.558,-0.724 11.596,0.011 14.173,1.152 m 78.4,-0.254 c 8.966,3.65 14.4,12.711 14.4,24.011 V 192 h -20.8 -20.8 l 0.005,1.5 c 0.01,2.884 1.502,8.813 2.859,11.364 7.342,13.802 28.454,11.997 33.023,-2.823 0.862,-2.795 2.796,-3.791 4.842,-2.493 1.37,0.868 -2.594,9.388 -5.959,12.806 -5.633,5.722 -18.262,7.669 -25.971,4.003 -20.008,-9.516 -16.884,-46.175 4.394,-51.564 2.777,-0.704 11.572,-0.218 14.007,0.773 m 50.925,0.223 c 5.553,2.274 9.033,6.884 9.389,12.439 l 0.191,2.972 h -1.997 -1.997 l -0.235,-1.988 c -0.85,-7.174 -5.753,-10.622 -15.076,-10.602 -9.264,0.02 -14.238,3.319 -14.157,9.39 0.075,5.547 4.48,8.455 15.957,10.532 14.21,2.572 18.62,5.947 18.936,14.489 0.366,9.898 -6.324,14.953 -19.816,14.972 -12.626,0.018 -21.32,-6.693 -21.32,-16.457 V 200 h 2.155 2.154 l 0.269,1.9 c 1.352,9.569 13.225,14.896 24.689,11.078 6.087,-2.027 8.778,-6.295 7.334,-11.63 -1.165,-4.303 -4.654,-6.461 -13.465,-8.328 -2.715,-0.575 -6.181,-1.312 -7.702,-1.637 -17.958,-3.835 -18.712,-23.336 -1.034,-26.728 3.439,-0.66 13.033,0.032 15.725,1.134 m 48,0 c 5.553,2.274 9.033,6.884 9.389,12.439 l 0.191,2.972 h -1.997 -1.997 l -0.235,-1.988 c -0.85,-7.174 -5.753,-10.622 -15.076,-10.602 -9.264,0.02 -14.238,3.319 -14.157,9.39 0.075,5.547 4.48,8.455 15.957,10.532 14.21,2.572 18.62,5.947 18.936,14.489 0.366,9.898 -6.324,14.953 -19.816,14.972 -12.361,0.018 -20.285,-5.774 -21.2,-15.493 l -0.236,-2.5 h 2.213 2.212 l 0.269,1.9 c 1.352,9.569 13.225,14.896 24.689,11.078 6.087,-2.027 8.778,-6.295 7.334,-11.63 -1.165,-4.303 -4.654,-6.461 -13.465,-8.328 -2.715,-0.575 -6.181,-1.312 -7.702,-1.637 -17.958,-3.835 -18.712,-23.336 -1.034,-26.728 3.439,-0.66 13.033,0.032 15.725,1.134 M 102.614,175.7 c 4.313,5.775 7.952,10.5 8.087,10.5 0.135,0 3.772,-4.68 8.081,-10.4 l 7.836,-10.4 2.349,-0.122 c 3.435,-0.178 3.397,0.01 -1.246,6.126 -2.337,3.078 -6.47,8.516 -9.186,12.086 l -4.938,6.489 9.996,13.311 c 5.497,7.32 9.998,13.453 10.001,13.628 0.003,0.174 -1.291,0.264 -2.877,0.2 l -2.883,-0.118 -4.128,-5.775 c -8.053,-11.269 -12.985,-17.706 -13.305,-17.368 -0.322,0.341 -9.883,13.154 -14.806,19.843 l -2.576,3.5 H 90.48 c -3.085,0 -3.092,-0.14 -0.193,-3.896 2.358,-3.056 15.034,-20.017 16.441,-21.998 l 0.918,-1.295 -1.211,-1.705 c -0.666,-0.938 -2.401,-3.236 -3.856,-5.106 -1.455,-1.87 -3.472,-4.48 -4.483,-5.8 -1.01,-1.32 -2.674,-3.48 -3.698,-4.8 -6.022,-7.77 -5.912,-7.4 -2.189,-7.4 h 2.563 l 7.842,10.5 M 198,170.662 v 5.462 l 1.538,-2.362 c 3.209,-4.928 10.444,-8.562 17.045,-8.562 H 218 v 2.144 2.143 l -3.3,0.216 c -4.804,0.314 -8.596,2.217 -11.751,5.897 -4.488,5.235 -4.664,6.169 -4.853,25.7 l -0.153,15.9 H 195.971 194 v -26 -26 h 2 2 v 5.462 M 58.81,169.041 c -7.101,1.908 -12.508,8.71 -13.435,16.897 L 45.097,188.4 H 63.548 82 v -1.125 C 82,175.013 70.432,165.918 58.81,169.041 m 98.003,-0.001 c -16.441,4.419 -18.136,37.106 -2.266,43.712 12.032,5.009 24.04,-2.181 26.098,-15.626 2.909,-19.002 -8.333,-32.251 -23.832,-28.086 m 79.62,-0.005 c -6.87,1.847 -12.018,8.003 -13.352,15.965 l -0.535,3.2 18.389,0.104 c 10.115,0.057 18.466,0.028 18.559,-0.064 0.478,-0.479 -1.269,-7.549 -2.481,-10.04 -3.774,-7.754 -12.076,-11.451 -20.58,-9.165"
       inkscape:connector-curvature="0"
       style="fill:#2c2c2c;fill-rule:evenodd;stroke:none" />
    <path
       id="path2"
       d="m 62.1,164.694 c 1.045,0.082 2.755,0.082 3.8,0 1.045,-0.082 0.19,-0.15 -1.9,-0.15 -2.09,0 -2.945,0.068 -1.9,0.15 m 98.4,0 c 1.045,0.082 2.755,0.082 3.8,0 1.045,-0.082 0.19,-0.15 -1.9,-0.15 -2.09,0 -2.945,0.068 -1.9,0.15 m 79.212,0.001 c 1.052,0.082 2.672,0.081 3.6,-0.003 0.928,-0.084 0.068,-0.151 -1.912,-0.15 -1.98,0.001 -2.74,0.07 -1.688,0.153 m 49.401,0 c 1.163,0.081 2.963,0.081 4,-0.002 1.038,-0.082 0.087,-0.148 -2.113,-0.147 -2.2,0.001 -3.049,0.068 -1.887,0.149 m 48,0 c 1.163,0.081 2.963,0.081 4,-0.002 1.038,-0.082 0.087,-0.148 -2.113,-0.147 -2.2,0.001 -3.049,0.068 -1.887,0.149 M 143.272,171.1 c -0.04,3.135 0.063,5.7 0.228,5.701 0.165,0 0.252,-1.755 0.194,-3.9 -0.189,-6.949 -0.348,-7.629 -0.422,-1.801 m 58.306,0.4 -1.378,1.5 1.5,-1.378 c 0.825,-0.759 1.5,-1.434 1.5,-1.5 0,-0.306 -0.338,-0.018 -1.622,1.378 m 51.222,0.625 c 0,0.069 0.585,0.654 1.3,1.3 l 1.3,1.175 -1.175,-1.3 c -1.095,-1.212 -1.425,-1.484 -1.425,-1.175 m 19.849,2.09 c -0.137,0.358 -0.234,0.951 -0.215,1.318 0.019,0.367 0.193,0.136 0.387,-0.513 0.377,-1.262 0.244,-1.887 -0.172,-0.805 M 198.6,175.6 c -0.341,0.66 -0.531,1.2 -0.421,1.2 0.11,0 0.48,-0.54 0.821,-1.2 0.341,-0.66 0.531,-1.2 0.421,-1.2 -0.11,0 -0.48,0.54 -0.821,1.2 m 77.493,2.4 c 0,0.77 0.082,1.085 0.183,0.7 0.1,-0.385 0.1,-1.015 0,-1.4 -0.101,-0.385 -0.183,-0.07 -0.183,0.7 m 48,0 c 0,0.77 0.082,1.085 0.183,0.7 0.1,-0.385 0.1,-1.015 0,-1.4 -0.101,-0.385 -0.183,-0.07 -0.183,0.7 m -16.588,3.083 c 0.497,0.096 1.217,0.092 1.6,-0.008 0.382,-0.1 -0.025,-0.179 -0.905,-0.174 -0.88,0.004 -1.193,0.086 -0.695,0.182 m 48,0 c 0.497,0.096 1.217,0.092 1.6,-0.008 0.382,-0.1 -0.025,-0.179 -0.905,-0.174 -0.88,0.004 -1.193,0.086 -0.695,0.182 M 45,184.8 c -0.152,0.691 -0.193,1.341 -0.091,1.442 0.102,0.102 0.3,-0.389 0.441,-1.092 0.333,-1.667 0.01,-1.99 -0.35,-0.35 m 41.12,4.8 c 0,1.21 0.075,1.705 0.167,1.1 0.091,-0.605 0.091,-1.595 0,-2.2 -0.092,-0.605 -0.167,-0.11 -0.167,1.1 m 136.043,-1.51 c 0.082,0.405 3.975,0.51 18.837,0.51 14.862,0 18.755,-0.105 18.837,-0.51 0.057,-0.28 0.012,-0.326 -0.1,-0.1 -0.135,0.271 -6.479,0.41 -18.737,0.41 -12.258,0 -18.602,-0.139 -18.737,-0.41 -0.112,-0.226 -0.156,-0.18 -0.1,0.1 M 54.3,188.7 c 5.115,0.063 13.485,0.063 18.6,0 5.115,-0.064 0.93,-0.115 -9.3,-0.115 -10.23,0 -14.415,0.051 -9.3,0.115 m 131.024,2.7 c 0.002,1.32 0.077,1.812 0.166,1.093 0.089,-0.719 0.087,-1.799 -0.004,-2.4 -0.091,-0.601 -0.164,-0.013 -0.162,1.307 m 32.804,0.2 c 0,1.43 0.073,2.015 0.161,1.3 0.089,-0.715 0.089,-1.885 0,-2.6 -0.088,-0.715 -0.161,-0.13 -0.161,1.3 m -177.608,0 c 0,1.21 0.075,1.705 0.167,1.1 0.091,-0.605 0.091,-1.595 0,-2.2 -0.092,-0.605 -0.167,-0.11 -0.167,1.1 m 3.994,2.2 c 0.003,1.1 0.081,1.503 0.173,0.895 0.092,-0.609 0.09,-1.509 -0.005,-2 -0.095,-0.492 -0.171,0.005 -0.168,1.105 m 225.979,7.4 c 0,0.77 0.082,1.085 0.183,0.7 0.1,-0.385 0.1,-1.015 0,-1.4 -0.101,-0.385 -0.183,-0.07 -0.183,0.7 m 48,0 c 0,0.77 0.082,1.085 0.183,0.7 0.1,-0.385 0.1,-1.015 0,-1.4 -0.101,-0.385 -0.183,-0.07 -0.183,0.7 M 143.11,221.38 c -0.061,7.8 0.02,14.05 0.18,13.891 0.38,-0.381 0.597,-28.071 0.22,-28.071 -0.16,0 -0.34,6.381 -0.4,14.18 m 6.09,-11.58 c 0.746,0.77 1.447,1.4 1.557,1.4 0.11,0 -0.411,-0.63 -1.157,-1.4 -0.746,-0.77 -1.447,-1.4 -1.557,-1.4 -0.11,0 0.411,0.63 1.157,1.4 m 107.578,2.5 -1.378,1.5 1.5,-1.378 c 1.396,-1.284 1.684,-1.622 1.378,-1.622 -0.066,0 -0.741,0.675 -1.5,1.5 m 18.422,-0.1 c 0.746,0.77 1.447,1.4 1.557,1.4 0.11,0 -0.411,-0.63 -1.157,-1.4 -0.746,-0.77 -1.447,-1.4 -1.557,-1.4 -0.11,0 0.411,0.63 1.157,1.4 m 48.2,0.2 c 0.859,0.88 1.652,1.6 1.762,1.6 0.11,0 -0.503,-0.72 -1.362,-1.6 -0.859,-0.88 -1.652,-1.6 -1.762,-1.6 -0.11,0 0.503,0.72 1.362,1.6 m -235.202,4.003 c -0.367,0.595 0.681,0.868 2.656,0.692 1.707,-0.152 1.698,-0.157 -0.378,-0.225 -1.298,-0.043 -2.027,-0.225 -1.876,-0.47 0.136,-0.22 0.157,-0.4 0.047,-0.4 -0.11,0 -0.312,0.181 -0.449,0.403 M 69.8,217.2 c -0.504,0.217 -0.578,0.344 -0.2,0.344 0.33,0 0.96,-0.155 1.4,-0.344 0.504,-0.217 0.578,-0.344 0.2,-0.344 -0.33,0 -0.96,0.155 -1.4,0.344 m 59.707,-0.11 c 0.719,0.089 1.799,0.087 2.4,-0.004 0.601,-0.091 0.013,-0.164 -1.307,-0.162 -1.32,0.002 -1.812,0.077 -1.093,0.166 m 65.593,-0.008 c 0.495,0.096 1.305,0.096 1.8,0 0.495,-0.095 0.09,-0.173 -0.9,-0.173 -0.99,0 -1.395,0.078 -0.9,0.173 m 103.5,0.118 c -0.504,0.217 -0.578,0.344 -0.2,0.344 0.33,0 0.96,-0.155 1.4,-0.344 0.504,-0.217 0.578,-0.344 0.2,-0.344 -0.33,0 -0.96,0.155 -1.4,0.344"
       inkscape:connector-curvature="0"
       style="fill:#9c9c9c;fill-rule:evenodd;stroke:none" />
    <path
       id="path3"
       d="m 89.461,165.5 c -0.102,0.165 0.742,0.248 1.877,0.184 3.409,-0.19 3.825,-0.372 0.986,-0.43 -1.472,-0.029 -2.76,0.081 -2.863,0.246 m 37.939,-0.062 c 1.874,0.301 4.509,0.339 4.338,0.062 -0.102,-0.165 -1.3,-0.275 -2.662,-0.246 -1.362,0.03 -2.116,0.113 -1.676,0.184 m 13.105,0.049 c 0.609,0.092 1.509,0.09 2,-0.005 0.492,-0.095 -0.005,-0.171 -1.105,-0.168 -1.1,0.003 -1.503,0.081 -0.895,0.173 m 54.395,0 c 0.605,0.091 1.595,0.091 2.2,0 0.605,-0.092 0.11,-0.167 -1.1,-0.167 -1.21,0 -1.705,0.075 -1.1,0.167 m 20,-0.011 c 0.385,0.1 1.015,0.1 1.4,0 0.385,-0.101 0.07,-0.183 -0.7,-0.183 -0.77,0 -1.085,0.082 -0.7,0.183 M 62.707,168.29 c 0.719,0.089 1.799,0.087 2.4,-0.004 0.601,-0.091 0.013,-0.164 -1.307,-0.162 -1.32,0.002 -1.812,0.077 -1.093,0.166 m 98.4,0 c 0.719,0.089 1.799,0.087 2.4,-0.004 0.601,-0.091 0.013,-0.164 -1.307,-0.162 -1.32,0.002 -1.812,0.077 -1.093,0.166 m 79.2,0 c 0.719,0.089 1.799,0.087 2.4,-0.004 0.601,-0.091 0.013,-0.164 -1.307,-0.162 -1.32,0.002 -1.812,0.077 -1.093,0.166 m 35.068,1.01 -1.175,1.3 1.3,-1.175 c 0.715,-0.646 1.3,-1.231 1.3,-1.3 0,-0.309 -0.33,-0.037 -1.425,1.175 m 14.116,-1.011 c 0.71,0.088 1.97,0.09 2.8,0.003 0.83,-0.087 0.249,-0.159 -1.291,-0.161 -1.54,-0.002 -2.219,0.069 -1.509,0.158 m 33.884,1.011 -1.175,1.3 1.3,-1.175 c 0.715,-0.646 1.3,-1.231 1.3,-1.3 0,-0.309 -0.33,-0.037 -1.425,1.175 m 14.116,-1.011 c 0.71,0.088 1.97,0.09 2.8,0.003 0.83,-0.087 0.249,-0.159 -1.291,-0.161 -1.54,-0.002 -2.219,0.069 -1.509,0.158 m -189.71,1.811 -1.581,1.7 1.7,-1.581 c 0.935,-0.87 1.7,-1.635 1.7,-1.7 0,-0.303 -0.348,0 -1.819,1.581 m 29.819,0.1 c 0.746,0.77 1.447,1.4 1.557,1.4 0.11,0 -0.411,-0.63 -1.157,-1.4 -0.746,-0.77 -1.447,-1.4 -1.557,-1.4 -0.11,0 0.411,0.63 1.157,1.4 m 37.7,-0.724 c 0.385,0.1 1.015,0.1 1.4,0 0.385,-0.101 0.07,-0.183 -0.7,-0.183 -0.77,0 -1.085,0.082 -0.7,0.183 m -65.925,3.824 -1.175,1.3 1.3,-1.175 c 1.212,-1.095 1.484,-1.425 1.175,-1.425 -0.069,0 -0.654,0.585 -1.3,1.3 m 122.734,4.3 c 0,0.99 0.078,1.395 0.173,0.9 0.096,-0.495 0.096,-1.305 0,-1.8 -0.095,-0.495 -0.173,-0.09 -0.173,0.9 m 48,0 c 0,0.99 0.078,1.395 0.173,0.9 0.096,-0.495 0.096,-1.305 0,-1.8 -0.095,-0.495 -0.173,-0.09 -0.173,0.9 m -175.46,4.215 c -0.137,0.358 -0.234,0.951 -0.215,1.318 0.019,0.367 0.193,0.136 0.387,-0.513 0.377,-1.262 0.244,-1.887 -0.172,-0.805 M 41,184.4 c -0.152,0.691 -0.193,1.341 -0.091,1.442 0.102,0.102 0.3,-0.389 0.441,-1.092 0.333,-1.667 0.01,-1.99 -0.35,-0.35 m 253.8,4.8 c 1.368,0.438 2.419,0.438 1.4,0 -0.44,-0.189 -1.16,-0.338 -1.6,-0.332 -0.643,0.009 -0.604,0.075 0.2,0.332 m 48,0 c 1.368,0.438 2.419,0.438 1.4,0 -0.44,-0.189 -1.16,-0.338 -1.6,-0.332 -0.643,0.009 -0.604,0.075 0.2,0.332 m -297.907,6 c 0,0.77 0.082,1.085 0.183,0.7 0.1,-0.385 0.1,-1.015 0,-1.4 -0.101,-0.385 -0.183,-0.07 -0.183,0.7 m 38.012,4.287 c 0.609,0.092 1.509,0.09 2,-0.005 0.492,-0.095 -0.005,-0.171 -1.105,-0.168 -1.1,0.003 -1.503,0.081 -0.895,0.173 M 260.3,199.482 c 0.495,0.096 1.305,0.096 1.8,0 0.495,-0.095 0.09,-0.173 -0.9,-0.173 -0.99,0 -1.395,0.078 -0.9,0.173 M 76.175,209.7 75,211 l 1.3,-1.175 c 1.212,-1.095 1.484,-1.425 1.175,-1.425 -0.069,0 -0.654,0.585 -1.3,1.3 m 3.403,2.6 -1.378,1.5 1.5,-1.378 c 1.396,-1.284 1.684,-1.622 1.378,-1.622 -0.066,0 -0.741,0.675 -1.5,1.5 M 147.2,213 c 0.746,0.77 1.447,1.4 1.557,1.4 0.11,0 -0.411,-0.63 -1.157,-1.4 -0.746,-0.77 -1.447,-1.4 -1.557,-1.4 -0.11,0 0.411,0.63 1.157,1.4 m -85.1,1.291 c 0.825,0.087 2.175,0.087 3,0 0.825,-0.086 0.15,-0.157 -1.5,-0.157 -1.65,0 -2.325,0.071 -1.5,0.157 m 98.611,0.002 c 0.94,0.085 2.38,0.084 3.2,-0.002 0.819,-0.086 0.049,-0.155 -1.711,-0.154 -1.76,0.002 -2.43,0.072 -1.489,0.156 m 78.78,-0.004 c 0.71,0.088 1.97,0.09 2.8,0.003 0.83,-0.087 0.249,-0.159 -1.291,-0.161 -1.54,-0.002 -2.219,0.069 -1.509,0.158 m 50.609,0.002 c 0.825,0.087 2.175,0.087 3,0 0.825,-0.086 0.15,-0.157 -1.5,-0.157 -1.65,0 -2.325,0.071 -1.5,0.157 m 48,0 c 0.825,0.087 2.175,0.087 3,0 0.825,-0.086 0.15,-0.157 -1.5,-0.157 -1.65,0 -2.325,0.071 -1.5,0.157"
       inkscape:connector-curvature="0"
       style="fill:#848484;fill-rule:evenodd;stroke:none" />
    <path
       id="path4"
       d="m 139.391,200.4 c 0,19.25 0.049,27.125 0.109,17.5 0.06,-9.625 0.06,-25.375 0,-35 -0.06,-9.625 -0.109,-1.75 -0.109,17.5 M 263.72,189.6 c 0,1.21 0.075,1.705 0.167,1.1 0.091,-0.605 0.091,-1.595 0,-2.2 -0.092,-0.605 -0.167,-0.11 -0.167,1.1 m -82.389,1.8 c 0.002,1.54 0.074,2.121 0.161,1.291 0.087,-0.83 0.085,-2.09 -0.003,-2.8 -0.089,-0.71 -0.16,-0.031 -0.158,1.509"
       inkscape:connector-curvature="0"
       style="fill:#8c8c8c;fill-rule:evenodd;stroke:none" />
  </g>
</svg>
